SplineFontDB: 3.2
FontName: Cyrillibesh-BETA
FullName: Cyrillibesh BETA
FamilyName: Cyrillibesh
Weight: Regular
Copyright: CC-0 Public domain
UComments: "2020-5-24: Created with FontForge (http://fontforge.org)"
Version: 001.001
ItalicAngle: 0
UnderlinePosition: -100
UnderlineWidth: 50
Ascent: 800
Descent: 200
InvalidEm: 0
LayerCount: 2
Layer: 0 0 "Back" 1
Layer: 1 0 "Fore" 0
XUID: [1021 178 1911899458 41]
FSType: 0
OS2Version: 0
OS2_WeightWidthSlopeOnly: 0
OS2_UseTypoMetrics: 1
CreationTime: 1590366859
ModificationTime: 1590372014
PfmFamily: 17
TTFWeight: 400
TTFWidth: 5
LineGap: 90
VLineGap: 0
OS2TypoAscent: 0
OS2TypoAOffset: 1
OS2TypoDescent: 0
OS2TypoDOffset: 1
OS2TypoLinegap: 90
OS2WinAscent: 0
OS2WinAOffset: 1
OS2WinDescent: 0
OS2WinDOffset: 1
HheadAscent: 0
HheadAOffset: 1
HheadDescent: 0
HheadDOffset: 1
OS2Vendor: 'PfEd'
OS2CodePages: 00000000.00000000
MarkAttachClasses: 1
DEI: 91125
LangName: 1033 "" "" "" "" "" "" "" "" "" "Ender Smith (AurekFonts)"
Encoding: ISO8859-1
UnicodeInterp: none
NameList: AGL For New Fonts
DisplaySize: -72
AntiAlias: 1
FitToEm: 0
WinInfo: 0 13 10
BeginPrivate: 0
EndPrivate
TeXData: 1 0 0 529530 264765 176510 1015022 1048576 176510 783286 444596 497025 792723 393216 433062 380633 303038 157286 324010 404750 52429 2506097 1059062 262144
BeginChars: 327 160

StartChar: exclam
Encoding: 33 33 3
Width: 479
Flags: W
VStem: 106 298
LayerCount: 2
Fore
SplineSet
404 368 m 1
 106 72 l 1
 106 282 l 1
 404 578 l 1
 404 368 l 1
402 712 m 1
 104 416 l 1
 104 626 l 1
 402 922 l 1
 402 712 l 1
EndSplineSet
Validated: 1
EndChar

StartChar: quotedbl
Encoding: 34 34 4
Width: 992
Flags: W
HStem: 956 20G<22 324.489 648 872>
VStem: 648 224<624 976>
LayerCount: 2
Fore
SplineSet
872 976 m 1
 872 473 l 1
 519 473 l 1
 22 976 l 1
 305 976 l 1
 648 624 l 1
 648 976 l 1
 872 976 l 1
EndSplineSet
Validated: 1
EndChar

StartChar: dollar
Encoding: 36 36 5
Width: 1122
Flags: W
HStem: -1 21G<221 518.22> -1 21G<221 518.22> 560 213<45 156 268 380 492 651> 948 20G<156 268 380 492> 948 20G<156 268 380 492>
VStem: 156 112<365 560 773 968> 380 112<365 560 773 968>
LayerCount: 2
Fore
SplineSet
268 968 m 1xb6
 268 773 l 1
 380 773 l 1
 380 968 l 1
 492 968 l 1
 492 773 l 1
 1092 773 l 1
 503 -1 l 1
 221 -1 l 1
 651 560 l 1
 492 560 l 1
 492 365 l 1
 380 365 l 1
 380 560 l 1
 268 560 l 1
 268 365 l 1
 156 365 l 1
 156 560 l 1
 45 560 l 1
 45 773 l 1
 156 773 l 1
 156 968 l 1
 268 968 l 1xb6
EndSplineSet
Validated: 1
EndChar

StartChar: ampersand
Encoding: 38 38 6
Width: 1420
Flags: W
HStem: -1 206<264 1178> 390 204<597 1178> 764 204<264 1178>
VStem: 41 223<205 393 563 764> 1178 204<205 390 594 764>
LayerCount: 2
Fore
SplineSet
1382 968 m 1
 1382 -1 l 1
 102 -1 l 1
 41 60 l 1
 41 393 l 1
 264 393 l 1
 264 205 l 1
 1178 205 l 1
 1178 390 l 1
 597 390 l 1
 597 594 l 1
 1178 594 l 1
 1178 764 l 1
 264 764 l 1
 264 563 l 1
 41 563 l 1
 41 918 l 1
 91 968 l 1
 1382 968 l 1
EndSplineSet
Validated: 1
EndChar

StartChar: quotesingle
Encoding: 39 39 7
Width: 600
Flags: W
HStem: 996 89<332 392>
VStem: 110 222<598 996>
LayerCount: 2
Fore
SplineSet
392 1085 m 1
 512 996 l 1
 332 996 l 1
 332 385 l 1
 110 598 l 1
 110 1085 l 1
 392 1085 l 1
EndSplineSet
Validated: 1
EndChar

StartChar: parenleft
Encoding: 40 40 8
Width: 582
Flags: W
HStem: -1 21G<246 452> -1 21G<246 452> 378 214<60 246> 948 20G<246 452> 948 20G<246 452>
VStem: 246 206<-1 378 592 968>
LayerCount: 2
Fore
SplineSet
246 -1 m 1xb4
 246 378 l 1
 60 378 l 1
 60 592 l 1
 246 592 l 1
 246 968 l 1
 452 968 l 1
 452 -1 l 1
 246 -1 l 1xb4
EndSplineSet
Validated: 1
EndChar

StartChar: parenright
Encoding: 41 41 9
Width: 578
Flags: W
LayerCount: 2
Fore
SplineSet
298 -1 m 1
 298 378 l 1
 484 378 l 1
 484 592 l 1
 298 592 l 1
 298 968 l 1
 92 968 l 1
 92 -1 l 1
 298 -1 l 1
EndSplineSet
Validated: 9
EndChar

StartChar: plus
Encoding: 43 43 10
Width: 1416
Flags: W
HStem: 0 196<252 1148> 392 200<256 812> 756 218<256 1148>
VStem: 34 218<196 392 592 756> 1148 219<196 756>
LayerCount: 2
Fore
SplineSet
1351 13 m 1
 1326 6 l 1
 1289 0 l 1
 111 0 l 1
 71 4 l 1
 47 12 l 1
 37 32 l 1
 34 65 l 1
 34 910 l 1
 38 941 l 1
 49 960 l 1
 69 971 l 1
 111 974 l 1
 1289 974 l 1
 1332 972 l 1
 1353 964 l 1
 1362 946 l 1
 1367 910 l 1
 1367 65 l 1
 1363 30 l 1
 1351 13 l 1
1148 196 m 1
 1148 756 l 1
 256 756 l 1
 256 592 l 1
 812 592 l 1
 812 392 l 1
 252 392 l 1
 252 196 l 1
 1148 196 l 1
EndSplineSet
Validated: 1
EndChar

StartChar: comma
Encoding: 44 44 11
Width: 408
Flags: W
HStem: 0 21G<81 300> 0 21G<81 300>
VStem: 81 219<0 492>
LayerCount: 2
Fore
SplineSet
81 0 m 1xa0
 81 492 l 1
 300 492 l 1
 300 0 l 1
 81 0 l 1xa0
EndSplineSet
Validated: 1
EndChar

StartChar: hyphen
Encoding: 45 45 12
AltUni2: 002010.ffffffff.0
Width: 768
Flags: W
HStem: 769 207
LayerCount: 2
Fore
SplineSet
90 976 m 1
 90 769 l 1
 657 769 l 1
 657 976 l 1
 90 976 l 1
EndSplineSet
Validated: 9
EndChar

StartChar: period
Encoding: 46 46 13
Width: 766
Flags: W
HStem: -1 492<81 300 382 601>
VStem: 81 219<-1 491> 382 219<0 492>
LayerCount: 2
Fore
SplineSet
382 0 m 1
 382 492 l 1
 601 492 l 1
 601 0 l 1
 382 0 l 1
81 -1 m 1
 81 491 l 1
 300 491 l 1
 300 -1 l 1
 81 -1 l 1
EndSplineSet
Validated: 1
EndChar

StartChar: slash
Encoding: 47 47 14
Width: 557
Flags: W
HStem: 0 21G<110 330> 0 21G<110 330>
VStem: 110 220<0 402> 298 218<550 977>
LayerCount: 2
Fore
SplineSet
516 550 m 1x90
 330 404 l 1
 330 0 l 1
 110 0 l 1
 110 402 l 1xa0
 298 550 l 1
 298 978 l 1
 517 977 l 1
 516 550 l 1x90
EndSplineSet
Validated: 1
EndChar

StartChar: zero
Encoding: 48 48 15
Width: 328
Flags: W
HStem: 430 184<86.499 243.749>
VStem: 72 182<442.561 606.742>
LayerCount: 2
Fore
SplineSet
86 442 m 1
 80 454 76.1666666667 464.333333333 74.5 473 c 0
 72.8333333333 481.666666667 72 498.166666667 72 522.5 c 0
 72 546.833333333 72.8333333333 563.333333333 74.5 572 c 0
 76.1666666667 580.666666667 77.8333333333 587.833333333 79.5 593.5 c 0
 81.1666666667 599.166666667 84.8333333333 603.166666667 90.5 605.5 c 0
 96.1666666667 607.833333333 103.5 609.833333333 112.5 611.5 c 0
 121.5 613.166666667 138.166666667 614 162.5 614 c 0
 186.833333333 614 203.5 613.166666667 212.5 611.5 c 0
 221.5 609.833333333 228.833333333 608 234.5 606 c 0
 240.166666667 604 243.833333333 600.666666667 245.5 596 c 0
 247.166666667 591.333333333 249 584 251 574 c 0
 253 564 254 546.833333333 254 522.5 c 0
 254 498.166666667 253 482 251 474 c 0
 249 466 246.833333333 459.166666667 244.5 453.5 c 0
 242.166666667 447.833333333 238 443.5 232 440.5 c 0
 226 437.5 219 435 211 433 c 0
 203 431 186.833333333 430 162.5 430 c 0
 138.166666667 430 122 430.666666667 114 432 c 0
 106 433.333333333 96.6666666667 436.666666667 86 442 c 1
EndSplineSet
Validated: 524289
EndChar

StartChar: one
Encoding: 49 49 16
Width: 532
Flags: W
HStem: 430 184<86.499 243.749 302.499 459.749>
VStem: 72 182<442.561 606.742> 288 182<442.561 606.742>
LayerCount: 2
Fore
SplineSet
86 442 m 1
 80 454 76.1666666667 464.333333333 74.5 473 c 0
 72.8333333333 481.666666667 72 498.166666667 72 522.5 c 0
 72 546.833333333 72.8333333333 563.333333333 74.5 572 c 0
 76.1666666667 580.666666667 77.8333333333 587.833333333 79.5 593.5 c 0
 81.1666666667 599.166666667 84.8333333333 603.166666667 90.5 605.5 c 0
 96.1666666667 607.833333333 103.5 609.833333333 112.5 611.5 c 0
 121.5 613.166666667 138.166666667 614 162.5 614 c 0
 186.833333333 614 203.5 613.166666667 212.5 611.5 c 0
 221.5 609.833333333 228.833333333 608 234.5 606 c 0
 240.166666667 604 243.833333333 600.666666667 245.5 596 c 0
 247.166666667 591.333333333 249 584 251 574 c 0
 253 564 254 546.833333333 254 522.5 c 0
 254 498.166666667 253 482 251 474 c 0
 249 466 246.833333333 459.166666667 244.5 453.5 c 0
 242.166666667 447.833333333 238 443.5 232 440.5 c 0
 226 437.5 219 435 211 433 c 0
 203 431 186.833333333 430 162.5 430 c 0
 138.166666667 430 122 430.666666667 114 432 c 0
 106 433.333333333 96.6666666667 436.666666667 86 442 c 1
302 442 m 1
 296 454 292.166666667 464.333333333 290.5 473 c 0
 288.833333333 481.666666667 288 498.166666667 288 522.5 c 0
 288 546.833333333 288.833333333 563.333333333 290.5 572 c 0
 292.166666667 580.666666667 293.833333333 587.833333333 295.5 593.5 c 0
 297.166666667 599.166666667 300.833333333 603.166666667 306.5 605.5 c 0
 312.166666667 607.833333333 319.5 609.833333333 328.5 611.5 c 0
 337.5 613.166666667 354.166666667 614 378.5 614 c 0
 402.833333333 614 419.5 613.166666667 428.5 611.5 c 0
 437.5 609.833333333 444.833333333 608 450.5 606 c 0
 456.166666667 604 459.833333333 600.666666667 461.5 596 c 0
 463.166666667 591.333333333 465 584 467 574 c 0
 469 564 470 546.833333333 470 522.5 c 0
 470 498.166666667 469 482 467 474 c 0
 465 466 462.833333333 459.166666667 460.5 453.5 c 0
 458.166666667 447.833333333 454 443.5 448 440.5 c 0
 442 437.5 435 435 427 433 c 0
 419 431 402.833333333 430 378.5 430 c 0
 354.166666667 430 338 430.666666667 330 432 c 0
 322 433.333333333 312.666666667 436.666666667 302 442 c 1
EndSplineSet
Validated: 524289
EndChar

StartChar: two
Encoding: 50 50 17
Width: 532
Flags: W
HStem: 213 184<304.499 461.749> 430 184<86.499 243.749 302.499 459.749>
VStem: 72 182<442.561 606.742> 290 182<225.561 265.688 346.862 389.742 442.561 606.094>
LayerCount: 2
Fore
SplineSet
86 442 m 1
 80 454 76.1666666667 464.333333333 74.5 473 c 0
 72.8333333333 481.666666667 72 498.166666667 72 522.5 c 0
 72 546.833333333 72.8333333333 563.333333333 74.5 572 c 0
 76.1666666667 580.666666667 77.8333333333 587.833333333 79.5 593.5 c 0
 81.1666666667 599.166666667 84.8333333333 603.166666667 90.5 605.5 c 0
 96.1666666667 607.833333333 103.5 609.833333333 112.5 611.5 c 0
 121.5 613.166666667 138.166666667 614 162.5 614 c 0
 186.833333333 614 203.5 613.166666667 212.5 611.5 c 0
 221.5 609.833333333 228.833333333 608 234.5 606 c 0
 240.166666667 604 243.833333333 600.666666667 245.5 596 c 0
 247.166666667 591.333333333 249 584 251 574 c 0
 253 564 254 546.833333333 254 522.5 c 0
 254 498.166666667 253 482 251 474 c 0
 249 466 246.833333333 459.166666667 244.5 453.5 c 0
 242.166666667 447.833333333 238 443.5 232 440.5 c 0
 226 437.5 219 435 211 433 c 0
 203 431 186.833333333 430 162.5 430 c 0
 138.166666667 430 122 430.666666667 114 432 c 0
 106 433.333333333 96.6666666667 436.666666667 86 442 c 1
302 442 m 1
 296 454 292.166666667 464.333333333 290.5 473 c 0
 288.833333333 481.666666667 288 498.166666667 288 522.5 c 0
 288 546.833333333 288.833333333 563.333333333 290.5 572 c 0
 292.166666667 580.666666667 293.833333333 587.833333333 295.5 593.5 c 0
 297.166666667 599.166666667 300.833333333 603.166666667 306.5 605.5 c 0
 312.166666667 607.833333333 319.5 609.833333333 328.5 611.5 c 0
 337.5 613.166666667 354.166666667 614 378.5 614 c 0
 402.833333333 614 419.5 613.166666667 428.5 611.5 c 0
 437.5 609.833333333 444.833333333 608 450.5 606 c 0
 456.166666667 604 459.833333333 600.666666667 461.5 596 c 0
 463.166666667 591.333333333 465 584 467 574 c 0
 469 564 470 546.833333333 470 522.5 c 0
 470 498.166666667 469 482 467 474 c 0
 465 466 462.833333333 459.166666667 460.5 453.5 c 0
 458.166666667 447.833333333 454 443.5 448 440.5 c 0
 442 437.5 435 435 427 433 c 0
 419 431 402.833333333 430 378.5 430 c 0
 354.166666667 430 338 430.666666667 330 432 c 0
 322 433.333333333 312.666666667 436.666666667 302 442 c 1
304 225 m 1
 298 237 294.166666667 247.333333333 292.5 256 c 0
 290.833333333 264.666666667 290 281.166666667 290 305.5 c 0
 290 329.833333333 290.833333333 346.333333333 292.5 355 c 0
 294.166666667 363.666666667 295.833333333 370.833333333 297.5 376.5 c 0
 299.166666667 382.166666667 302.833333333 386.166666667 308.5 388.5 c 0
 314.166666667 390.833333333 321.5 392.833333333 330.5 394.5 c 0
 339.5 396.166666667 356.166666667 397 380.5 397 c 0
 404.833333333 397 421.5 396.166666667 430.5 394.5 c 0
 439.5 392.833333333 446.833333333 391 452.5 389 c 0
 458.166666667 387 461.833333333 383.666666667 463.5 379 c 0
 465.166666667 374.333333333 467 367 469 357 c 0
 471 347 472 329.833333333 472 305.5 c 0
 472 281.166666667 471 265 469 257 c 0
 467 249 464.833333333 242.166666667 462.5 236.5 c 0
 460.166666667 230.833333333 456 226.5 450 223.5 c 0
 444 220.5 437 218 429 216 c 0
 421 214 404.833333333 213 380.5 213 c 0
 356.166666667 213 340 213.666666667 332 215 c 0
 324 216.333333333 314.666666667 219.666666667 304 225 c 1
EndSplineSet
Validated: 524289
EndChar

StartChar: three
Encoding: 51 51 18
Width: 532
Flags: W
HStem: 1 184<302.499 459.749> 213 184<304.499 461.749> 430 184<86.499 243.749 302.499 459.749>
VStem: 72 182<442.561 606.742> 290 182<13.5613 177.094 225.561 265.688 346.862 389.742 442.561 606.094>
LayerCount: 2
Fore
SplineSet
302 13 m 1
 296 25 292.166666667 35.3333333333 290.5 44 c 0
 288.833333333 52.6666666667 288 69.1666666667 288 93.5 c 0
 288 117.833333333 288.833333333 134.333333333 290.5 143 c 0
 292.166666667 151.666666667 293.833333333 158.833333333 295.5 164.5 c 0
 297.166666667 170.166666667 300.833333333 174.166666667 306.5 176.5 c 0
 312.166666667 178.833333333 319.5 180.833333333 328.5 182.5 c 0
 337.5 184.166666667 354.166666667 185 378.5 185 c 0
 402.833333333 185 419.5 184.166666667 428.5 182.5 c 0
 437.5 180.833333333 444.833333333 179 450.5 177 c 0
 456.166666667 175 459.833333333 171.666666667 461.5 167 c 0
 463.166666667 162.333333333 465 155 467 145 c 0
 469 135 470 117.833333333 470 93.5 c 0
 470 69.1666666667 469 53 467 45 c 0
 465 37 462.833333333 30.1666666667 460.5 24.5 c 0
 458.166666667 18.8333333333 454 14.5 448 11.5 c 0
 442 8.5 435 6 427 4 c 0
 419 2 402.833333333 1 378.5 1 c 0
 354.166666667 1 338 1.66666666667 330 3 c 0
 322 4.33333333333 312.666666667 7.66666666667 302 13 c 1
86 442 m 1
 80 454 76.1666666667 464.333333333 74.5 473 c 0
 72.8333333333 481.666666667 72 498.166666667 72 522.5 c 0
 72 546.833333333 72.8333333333 563.333333333 74.5 572 c 0
 76.1666666667 580.666666667 77.8333333333 587.833333333 79.5 593.5 c 0
 81.1666666667 599.166666667 84.8333333333 603.166666667 90.5 605.5 c 0
 96.1666666667 607.833333333 103.5 609.833333333 112.5 611.5 c 0
 121.5 613.166666667 138.166666667 614 162.5 614 c 0
 186.833333333 614 203.5 613.166666667 212.5 611.5 c 0
 221.5 609.833333333 228.833333333 608 234.5 606 c 0
 240.166666667 604 243.833333333 600.666666667 245.5 596 c 0
 247.166666667 591.333333333 249 584 251 574 c 0
 253 564 254 546.833333333 254 522.5 c 0
 254 498.166666667 253 482 251 474 c 0
 249 466 246.833333333 459.166666667 244.5 453.5 c 0
 242.166666667 447.833333333 238 443.5 232 440.5 c 0
 226 437.5 219 435 211 433 c 0
 203 431 186.833333333 430 162.5 430 c 0
 138.166666667 430 122 430.666666667 114 432 c 0
 106 433.333333333 96.6666666667 436.666666667 86 442 c 1
302 442 m 1
 296 454 292.166666667 464.333333333 290.5 473 c 0
 288.833333333 481.666666667 288 498.166666667 288 522.5 c 0
 288 546.833333333 288.833333333 563.333333333 290.5 572 c 0
 292.166666667 580.666666667 293.833333333 587.833333333 295.5 593.5 c 0
 297.166666667 599.166666667 300.833333333 603.166666667 306.5 605.5 c 0
 312.166666667 607.833333333 319.5 609.833333333 328.5 611.5 c 0
 337.5 613.166666667 354.166666667 614 378.5 614 c 0
 402.833333333 614 419.5 613.166666667 428.5 611.5 c 0
 437.5 609.833333333 444.833333333 608 450.5 606 c 0
 456.166666667 604 459.833333333 600.666666667 461.5 596 c 0
 463.166666667 591.333333333 465 584 467 574 c 0
 469 564 470 546.833333333 470 522.5 c 0
 470 498.166666667 469 482 467 474 c 0
 465 466 462.833333333 459.166666667 460.5 453.5 c 0
 458.166666667 447.833333333 454 443.5 448 440.5 c 0
 442 437.5 435 435 427 433 c 0
 419 431 402.833333333 430 378.5 430 c 0
 354.166666667 430 338 430.666666667 330 432 c 0
 322 433.333333333 312.666666667 436.666666667 302 442 c 1
304 225 m 1
 298 237 294.166666667 247.333333333 292.5 256 c 0
 290.833333333 264.666666667 290 281.166666667 290 305.5 c 0
 290 329.833333333 290.833333333 346.333333333 292.5 355 c 0
 294.166666667 363.666666667 295.833333333 370.833333333 297.5 376.5 c 0
 299.166666667 382.166666667 302.833333333 386.166666667 308.5 388.5 c 0
 314.166666667 390.833333333 321.5 392.833333333 330.5 394.5 c 0
 339.5 396.166666667 356.166666667 397 380.5 397 c 0
 404.833333333 397 421.5 396.166666667 430.5 394.5 c 0
 439.5 392.833333333 446.833333333 391 452.5 389 c 0
 458.166666667 387 461.833333333 383.666666667 463.5 379 c 0
 465.166666667 374.333333333 467 367 469 357 c 0
 471 347 472 329.833333333 472 305.5 c 0
 472 281.166666667 471 265 469 257 c 0
 467 249 464.833333333 242.166666667 462.5 236.5 c 0
 460.166666667 230.833333333 456 226.5 450 223.5 c 0
 444 220.5 437 218 429 216 c 0
 421 214 404.833333333 213 380.5 213 c 0
 356.166666667 213 340 213.666666667 332 215 c 0
 324 216.333333333 314.666666667 219.666666667 304 225 c 1
EndSplineSet
Validated: 524289
EndChar

StartChar: four
Encoding: 52 52 19
Width: 532
Flags: W
HStem: 430 184<302.499 459.749>
VStem: 77 171<239 601.742> 288 182<442.561 606.742>
LayerCount: 2
Fore
SplineSet
302 442 m 1
 296 454 292.166666667 464.333333333 290.5 473 c 0
 288.833333333 481.666666667 288 498.166666667 288 522.5 c 0
 288 546.833333333 288.833333333 563.333333333 290.5 572 c 0
 292.166666667 580.666666667 293.833333333 587.833333333 295.5 593.5 c 0
 297.166666667 599.166666667 300.833333333 603.166666667 306.5 605.5 c 0
 312.166666667 607.833333333 319.5 609.833333333 328.5 611.5 c 0
 337.5 613.166666667 354.166666667 614 378.5 614 c 0
 402.833333333 614 419.5 613.166666667 428.5 611.5 c 0
 437.5 609.833333333 444.833333333 608 450.5 606 c 0
 456.166666667 604 459.833333333 600.666666667 461.5 596 c 0
 463.166666667 591.333333333 465 584 467 574 c 0
 469 564 470 546.833333333 470 522.5 c 0
 470 498.166666667 469 482 467 474 c 0
 465 466 462.833333333 459.166666667 460.5 453.5 c 0
 458.166666667 447.833333333 454 443.5 448 440.5 c 0
 442 437.5 435 435 427 433 c 0
 419 431 402.833333333 430 378.5 430 c 0
 354.166666667 430 338 430.666666667 330 432 c 0
 322 433.333333333 312.666666667 436.666666667 302 442 c 1
81 239 m 1
 77 280 l 1
 77 553 l 2
 77.6666666667 580.333333333 80.8333333333 596.666666667 86.5 602 c 0
 92.1666666667 607.333333333 100.166666667 610.666666667 110.5 612 c 0
 120.833333333 613.333333333 138.166666667 614 162.5 614 c 0
 186.833333333 614 203.833333333 613.166666667 213.5 611.5 c 0
 223.166666667 609.833333333 231 607 237 603 c 0
 243 599 246.666666667 585 248 561 c 2
 248 283 l 2
 246.666666667 255.666666667 243.666666667 238.833333333 239 232.5 c 0
 234.333333333 226.166666667 226.5 221.5 215.5 218.5 c 0
 204.5 215.5 186.833333333 214 162.5 214 c 0
 138.166666667 214 120.833333333 215.166666667 110.5 217.5 c 0
 100.166666667 219.833333333 90.3333333333 227 81 239 c 1
EndSplineSet
Validated: 524289
EndChar

StartChar: five
Encoding: 53 53 20
Width: 532
Flags: W
HStem: 213 184<304.499 461.749> 430 184<302.499 459.749>
VStem: 77 171<239 601.742> 290 182<225.561 265.688 346.862 389.742 442.561 606.094>
LayerCount: 2
Fore
SplineSet
302 442 m 1
 296 454 292.166666667 464.333333333 290.5 473 c 0
 288.833333333 481.666666667 288 498.166666667 288 522.5 c 0
 288 546.833333333 288.833333333 563.333333333 290.5 572 c 0
 292.166666667 580.666666667 293.833333333 587.833333333 295.5 593.5 c 0
 297.166666667 599.166666667 300.833333333 603.166666667 306.5 605.5 c 0
 312.166666667 607.833333333 319.5 609.833333333 328.5 611.5 c 0
 337.5 613.166666667 354.166666667 614 378.5 614 c 0
 402.833333333 614 419.5 613.166666667 428.5 611.5 c 0
 437.5 609.833333333 444.833333333 608 450.5 606 c 0
 456.166666667 604 459.833333333 600.666666667 461.5 596 c 0
 463.166666667 591.333333333 465 584 467 574 c 0
 469 564 470 546.833333333 470 522.5 c 0
 470 498.166666667 469 482 467 474 c 0
 465 466 462.833333333 459.166666667 460.5 453.5 c 0
 458.166666667 447.833333333 454 443.5 448 440.5 c 0
 442 437.5 435 435 427 433 c 0
 419 431 402.833333333 430 378.5 430 c 0
 354.166666667 430 338 430.666666667 330 432 c 0
 322 433.333333333 312.666666667 436.666666667 302 442 c 1
304 225 m 1
 298 237 294.166666667 247.333333333 292.5 256 c 0
 290.833333333 264.666666667 290 281.166666667 290 305.5 c 0
 290 329.833333333 290.833333333 346.333333333 292.5 355 c 0
 294.166666667 363.666666667 295.833333333 370.833333333 297.5 376.5 c 0
 299.166666667 382.166666667 302.833333333 386.166666667 308.5 388.5 c 0
 314.166666667 390.833333333 321.5 392.833333333 330.5 394.5 c 0
 339.5 396.166666667 356.166666667 397 380.5 397 c 0
 404.833333333 397 421.5 396.166666667 430.5 394.5 c 0
 439.5 392.833333333 446.833333333 391 452.5 389 c 0
 458.166666667 387 461.833333333 383.666666667 463.5 379 c 0
 465.166666667 374.333333333 467 367 469 357 c 0
 471 347 472 329.833333333 472 305.5 c 0
 472 281.166666667 471 265 469 257 c 0
 467 249 464.833333333 242.166666667 462.5 236.5 c 0
 460.166666667 230.833333333 456 226.5 450 223.5 c 0
 444 220.5 437 218 429 216 c 0
 421 214 404.833333333 213 380.5 213 c 0
 356.166666667 213 340 213.666666667 332 215 c 0
 324 216.333333333 314.666666667 219.666666667 304 225 c 1
81 239 m 1
 77 280 l 1
 77 553 l 2
 77.6666666667 580.333333333 80.8333333333 596.666666667 86.5 602 c 0
 92.1666666667 607.333333333 100.166666667 610.666666667 110.5 612 c 0
 120.833333333 613.333333333 138.166666667 614 162.5 614 c 0
 186.833333333 614 203.833333333 613.166666667 213.5 611.5 c 0
 223.166666667 609.833333333 231 607 237 603 c 0
 243 599 246.666666667 585 248 561 c 2
 248 283 l 2
 246.666666667 255.666666667 243.666666667 238.833333333 239 232.5 c 0
 234.333333333 226.166666667 226.5 221.5 215.5 218.5 c 0
 204.5 215.5 186.833333333 214 162.5 214 c 0
 138.166666667 214 120.833333333 215.166666667 110.5 217.5 c 0
 100.166666667 219.833333333 90.3333333333 227 81 239 c 1
EndSplineSet
Validated: 524289
EndChar

StartChar: six
Encoding: 54 54 21
Width: 532
Flags: W
HStem: 1 184<302.499 459.749> 213 184<304.499 461.749> 430 184<302.499 459.749>
VStem: 77 171<239 601.742> 290 182<13.5613 177.094 225.561 265.688 346.862 389.742 442.561 606.094>
LayerCount: 2
Fore
SplineSet
302 442 m 1
 296 454 292.166666667 464.333333333 290.5 473 c 0
 288.833333333 481.666666667 288 498.166666667 288 522.5 c 0
 288 546.833333333 288.833333333 563.333333333 290.5 572 c 0
 292.166666667 580.666666667 293.833333333 587.833333333 295.5 593.5 c 0
 297.166666667 599.166666667 300.833333333 603.166666667 306.5 605.5 c 0
 312.166666667 607.833333333 319.5 609.833333333 328.5 611.5 c 0
 337.5 613.166666667 354.166666667 614 378.5 614 c 0
 402.833333333 614 419.5 613.166666667 428.5 611.5 c 0
 437.5 609.833333333 444.833333333 608 450.5 606 c 0
 456.166666667 604 459.833333333 600.666666667 461.5 596 c 0
 463.166666667 591.333333333 465 584 467 574 c 0
 469 564 470 546.833333333 470 522.5 c 0
 470 498.166666667 469 482 467 474 c 0
 465 466 462.833333333 459.166666667 460.5 453.5 c 0
 458.166666667 447.833333333 454 443.5 448 440.5 c 0
 442 437.5 435 435 427 433 c 0
 419 431 402.833333333 430 378.5 430 c 0
 354.166666667 430 338 430.666666667 330 432 c 0
 322 433.333333333 312.666666667 436.666666667 302 442 c 1
304 225 m 1
 298 237 294.166666667 247.333333333 292.5 256 c 0
 290.833333333 264.666666667 290 281.166666667 290 305.5 c 0
 290 329.833333333 290.833333333 346.333333333 292.5 355 c 0
 294.166666667 363.666666667 295.833333333 370.833333333 297.5 376.5 c 0
 299.166666667 382.166666667 302.833333333 386.166666667 308.5 388.5 c 0
 314.166666667 390.833333333 321.5 392.833333333 330.5 394.5 c 0
 339.5 396.166666667 356.166666667 397 380.5 397 c 0
 404.833333333 397 421.5 396.166666667 430.5 394.5 c 0
 439.5 392.833333333 446.833333333 391 452.5 389 c 0
 458.166666667 387 461.833333333 383.666666667 463.5 379 c 0
 465.166666667 374.333333333 467 367 469 357 c 0
 471 347 472 329.833333333 472 305.5 c 0
 472 281.166666667 471 265 469 257 c 0
 467 249 464.833333333 242.166666667 462.5 236.5 c 0
 460.166666667 230.833333333 456 226.5 450 223.5 c 0
 444 220.5 437 218 429 216 c 0
 421 214 404.833333333 213 380.5 213 c 0
 356.166666667 213 340 213.666666667 332 215 c 0
 324 216.333333333 314.666666667 219.666666667 304 225 c 1
302 13 m 1
 296 25 292.166666667 35.3333333333 290.5 44 c 0
 288.833333333 52.6666666667 288 69.1666666667 288 93.5 c 0
 288 117.833333333 288.833333333 134.333333333 290.5 143 c 0
 292.166666667 151.666666667 293.833333333 158.833333333 295.5 164.5 c 0
 297.166666667 170.166666667 300.833333333 174.166666667 306.5 176.5 c 0
 312.166666667 178.833333333 319.5 180.833333333 328.5 182.5 c 0
 337.5 184.166666667 354.166666667 185 378.5 185 c 0
 402.833333333 185 419.5 184.166666667 428.5 182.5 c 0
 437.5 180.833333333 444.833333333 179 450.5 177 c 0
 456.166666667 175 459.833333333 171.666666667 461.5 167 c 0
 463.166666667 162.333333333 465 155 467 145 c 0
 469 135 470 117.833333333 470 93.5 c 0
 470 69.1666666667 469 53 467 45 c 0
 465 37 462.833333333 30.1666666667 460.5 24.5 c 0
 458.166666667 18.8333333333 454 14.5 448 11.5 c 0
 442 8.5 435 6 427 4 c 0
 419 2 402.833333333 1 378.5 1 c 0
 354.166666667 1 338 1.66666666667 330 3 c 0
 322 4.33333333333 312.666666667 7.66666666667 302 13 c 1
81 239 m 1
 77 280 l 1
 77 553 l 2
 77.6666666667 580.333333333 80.8333333333 596.666666667 86.5 602 c 0
 92.1666666667 607.333333333 100.166666667 610.666666667 110.5 612 c 0
 120.833333333 613.333333333 138.166666667 614 162.5 614 c 0
 186.833333333 614 203.833333333 613.166666667 213.5 611.5 c 0
 223.166666667 609.833333333 231 607 237 603 c 0
 243 599 246.666666667 585 248 561 c 2
 248 283 l 2
 246.666666667 255.666666667 243.666666667 238.833333333 239 232.5 c 0
 234.333333333 226.166666667 226.5 221.5 215.5 218.5 c 0
 204.5 215.5 186.833333333 214 162.5 214 c 0
 138.166666667 214 120.833333333 215.166666667 110.5 217.5 c 0
 100.166666667 219.833333333 90.3333333333 227 81 239 c 1
EndSplineSet
Validated: 524289
EndChar

StartChar: seven
Encoding: 55 55 22
Width: 532
Flags: W
HStem: 1 613<87.1558 240.294> 430 184<302.499 459.749>
VStem: 77 171<33 593.582> 82 158.5<8.11719 88.2 272.219 609.266> 288 182<442.561 606.742>
LayerCount: 2
Fore
SplineSet
82 33 m 1x98
 77 102 l 1
 77 521 l 2
 78.3333333333 561 81 585.333333333 85 594 c 0
 89 602.666666667 96.8333333333 608.166666667 108.5 610.5 c 0
 120.166666667 612.833333333 138.166666667 614 162.5 614 c 0
 186.833333333 614 205.5 613.333333333 218.5 612 c 0
 231.5 610.666666667 239.666666667 605.5 243 596.5 c 0
 246.333333333 587.5 248 566.333333333 248 533 c 2
 248 108 l 2xa8
 247.333333333 60 244.833333333 31.6666666667 240.5 23 c 0
 236.166666667 14.3333333333 228.166666667 8.5 216.5 5.5 c 0
 204.833333333 2.5 186.833333333 1 162.5 1 c 0
 138.166666667 1 120 2.83333333333 108 6.5 c 0
 96 10.1666666667 87.3333333333 19 82 33 c 1x98
302 442 m 1
 296 454 292.166666667 464.333333333 290.5 473 c 0
 288.833333333 481.666666667 288 498.166666667 288 522.5 c 0
 288 546.833333333 288.833333333 563.333333333 290.5 572 c 0
 292.166666667 580.666666667 293.833333333 587.833333333 295.5 593.5 c 0
 297.166666667 599.166666667 300.833333333 603.166666667 306.5 605.5 c 0
 312.166666667 607.833333333 319.5 609.833333333 328.5 611.5 c 0
 337.5 613.166666667 354.166666667 614 378.5 614 c 0
 402.833333333 614 419.5 613.166666667 428.5 611.5 c 0
 437.5 609.833333333 444.833333333 608 450.5 606 c 0
 456.166666667 604 459.833333333 600.666666667 461.5 596 c 0
 463.166666667 591.333333333 465 584 467 574 c 0
 469 564 470 546.833333333 470 522.5 c 0
 470 498.166666667 469 482 467 474 c 0
 465 466 462.833333333 459.166666667 460.5 453.5 c 0
 458.166666667 447.833333333 454 443.5 448 440.5 c 0
 442 437.5 435 435 427 433 c 0
 419 431 402.833333333 430 378.5 430 c 0x48
 354.166666667 430 338 430.666666667 330 432 c 0
 322 433.333333333 312.666666667 436.666666667 302 442 c 1
EndSplineSet
Validated: 524289
EndChar

StartChar: eight
Encoding: 56 56 23
Width: 532
Flags: W
HStem: 1 613<87.1558 240.294> 213 184<304.499 461.749> 430 184<302.499 459.749>
VStem: 77 171<33 593.582> 82 158.5<8.11719 88.2 272.219 609.266> 290 182<225.561 265.688 346.862 389.742 442.561 606.094>
LayerCount: 2
Fore
SplineSet
82 33 m 1x8c
 77 102 l 1
 77 521 l 2
 78.3333333333 561 81 585.333333333 85 594 c 0
 89 602.666666667 96.8333333333 608.166666667 108.5 610.5 c 0
 120.166666667 612.833333333 138.166666667 614 162.5 614 c 0
 186.833333333 614 205.5 613.333333333 218.5 612 c 0
 231.5 610.666666667 239.666666667 605.5 243 596.5 c 0
 246.333333333 587.5 248 566.333333333 248 533 c 2
 248 108 l 2x94
 247.333333333 60 244.833333333 31.6666666667 240.5 23 c 0
 236.166666667 14.3333333333 228.166666667 8.5 216.5 5.5 c 0
 204.833333333 2.5 186.833333333 1 162.5 1 c 0
 138.166666667 1 120 2.83333333333 108 6.5 c 0
 96 10.1666666667 87.3333333333 19 82 33 c 1x8c
302 442 m 1
 296 454 292.166666667 464.333333333 290.5 473 c 0
 288.833333333 481.666666667 288 498.166666667 288 522.5 c 0
 288 546.833333333 288.833333333 563.333333333 290.5 572 c 0
 292.166666667 580.666666667 293.833333333 587.833333333 295.5 593.5 c 0
 297.166666667 599.166666667 300.833333333 603.166666667 306.5 605.5 c 0
 312.166666667 607.833333333 319.5 609.833333333 328.5 611.5 c 0
 337.5 613.166666667 354.166666667 614 378.5 614 c 0
 402.833333333 614 419.5 613.166666667 428.5 611.5 c 0
 437.5 609.833333333 444.833333333 608 450.5 606 c 0
 456.166666667 604 459.833333333 600.666666667 461.5 596 c 0
 463.166666667 591.333333333 465 584 467 574 c 0
 469 564 470 546.833333333 470 522.5 c 0
 470 498.166666667 469 482 467 474 c 0
 465 466 462.833333333 459.166666667 460.5 453.5 c 0
 458.166666667 447.833333333 454 443.5 448 440.5 c 0
 442 437.5 435 435 427 433 c 0
 419 431 402.833333333 430 378.5 430 c 0x24
 354.166666667 430 338 430.666666667 330 432 c 0
 322 433.333333333 312.666666667 436.666666667 302 442 c 1
304 225 m 1
 298 237 294.166666667 247.333333333 292.5 256 c 0
 290.833333333 264.666666667 290 281.166666667 290 305.5 c 0
 290 329.833333333 290.833333333 346.333333333 292.5 355 c 0
 294.166666667 363.666666667 295.833333333 370.833333333 297.5 376.5 c 0
 299.166666667 382.166666667 302.833333333 386.166666667 308.5 388.5 c 0
 314.166666667 390.833333333 321.5 392.833333333 330.5 394.5 c 0
 339.5 396.166666667 356.166666667 397 380.5 397 c 0
 404.833333333 397 421.5 396.166666667 430.5 394.5 c 0
 439.5 392.833333333 446.833333333 391 452.5 389 c 0
 458.166666667 387 461.833333333 383.666666667 463.5 379 c 0
 465.166666667 374.333333333 467 367 469 357 c 0
 471 347 472 329.833333333 472 305.5 c 0
 472 281.166666667 471 265 469 257 c 0
 467 249 464.833333333 242.166666667 462.5 236.5 c 0
 460.166666667 230.833333333 456 226.5 450 223.5 c 0
 444 220.5 437 218 429 216 c 0
 421 214 404.833333333 213 380.5 213 c 0x44
 356.166666667 213 340 213.666666667 332 215 c 0
 324 216.333333333 314.666666667 219.666666667 304 225 c 1
EndSplineSet
Validated: 524289
EndChar

StartChar: nine
Encoding: 57 57 24
Width: 532
Flags: W
HStem: 1 613<87.1558 240.294> 1 184<302.499 459.749> 213 184<304.499 461.749> 430 184<302.499 459.749>
VStem: 77 171<33 593.582> 82 158.5<8.11719 88.2 272.219 609.266> 290 182<13.5613 177.094 225.561 265.688 346.862 389.742 442.561 606.094>
LayerCount: 2
Fore
SplineSet
82 33 m 1x86
 77 102 l 1
 77 521 l 2
 78.3333333333 561 81 585.333333333 85 594 c 0
 89 602.666666667 96.8333333333 608.166666667 108.5 610.5 c 0
 120.166666667 612.833333333 138.166666667 614 162.5 614 c 0
 186.833333333 614 205.5 613.333333333 218.5 612 c 0
 231.5 610.666666667 239.666666667 605.5 243 596.5 c 0
 246.333333333 587.5 248 566.333333333 248 533 c 2
 248 108 l 2x8a
 247.333333333 60 244.833333333 31.6666666667 240.5 23 c 0
 236.166666667 14.3333333333 228.166666667 8.5 216.5 5.5 c 0
 204.833333333 2.5 186.833333333 1 162.5 1 c 0
 138.166666667 1 120 2.83333333333 108 6.5 c 0
 96 10.1666666667 87.3333333333 19 82 33 c 1x86
302 442 m 1
 296 454 292.166666667 464.333333333 290.5 473 c 0
 288.833333333 481.666666667 288 498.166666667 288 522.5 c 0
 288 546.833333333 288.833333333 563.333333333 290.5 572 c 0
 292.166666667 580.666666667 293.833333333 587.833333333 295.5 593.5 c 0
 297.166666667 599.166666667 300.833333333 603.166666667 306.5 605.5 c 0
 312.166666667 607.833333333 319.5 609.833333333 328.5 611.5 c 0
 337.5 613.166666667 354.166666667 614 378.5 614 c 0
 402.833333333 614 419.5 613.166666667 428.5 611.5 c 0
 437.5 609.833333333 444.833333333 608 450.5 606 c 0
 456.166666667 604 459.833333333 600.666666667 461.5 596 c 0
 463.166666667 591.333333333 465 584 467 574 c 0
 469 564 470 546.833333333 470 522.5 c 0
 470 498.166666667 469 482 467 474 c 0
 465 466 462.833333333 459.166666667 460.5 453.5 c 0
 458.166666667 447.833333333 454 443.5 448 440.5 c 0
 442 437.5 435 435 427 433 c 0
 419 431 402.833333333 430 378.5 430 c 0x12
 354.166666667 430 338 430.666666667 330 432 c 0
 322 433.333333333 312.666666667 436.666666667 302 442 c 1
304 225 m 1
 298 237 294.166666667 247.333333333 292.5 256 c 0
 290.833333333 264.666666667 290 281.166666667 290 305.5 c 0
 290 329.833333333 290.833333333 346.333333333 292.5 355 c 0
 294.166666667 363.666666667 295.833333333 370.833333333 297.5 376.5 c 0
 299.166666667 382.166666667 302.833333333 386.166666667 308.5 388.5 c 0
 314.166666667 390.833333333 321.5 392.833333333 330.5 394.5 c 0
 339.5 396.166666667 356.166666667 397 380.5 397 c 0
 404.833333333 397 421.5 396.166666667 430.5 394.5 c 0
 439.5 392.833333333 446.833333333 391 452.5 389 c 0
 458.166666667 387 461.833333333 383.666666667 463.5 379 c 0
 465.166666667 374.333333333 467 367 469 357 c 0
 471 347 472 329.833333333 472 305.5 c 0
 472 281.166666667 471 265 469 257 c 0
 467 249 464.833333333 242.166666667 462.5 236.5 c 0
 460.166666667 230.833333333 456 226.5 450 223.5 c 0
 444 220.5 437 218 429 216 c 0
 421 214 404.833333333 213 380.5 213 c 0x22
 356.166666667 213 340 213.666666667 332 215 c 0
 324 216.333333333 314.666666667 219.666666667 304 225 c 1
302 13 m 1
 296 25 292.166666667 35.3333333333 290.5 44 c 0
 288.833333333 52.6666666667 288 69.1666666667 288 93.5 c 0
 288 117.833333333 288.833333333 134.333333333 290.5 143 c 0
 292.166666667 151.666666667 293.833333333 158.833333333 295.5 164.5 c 0
 297.166666667 170.166666667 300.833333333 174.166666667 306.5 176.5 c 0
 312.166666667 178.833333333 319.5 180.833333333 328.5 182.5 c 0
 337.5 184.166666667 354.166666667 185 378.5 185 c 0
 402.833333333 185 419.5 184.166666667 428.5 182.5 c 0
 437.5 180.833333333 444.833333333 179 450.5 177 c 0
 456.166666667 175 459.833333333 171.666666667 461.5 167 c 0
 463.166666667 162.333333333 465 155 467 145 c 0
 469 135 470 117.833333333 470 93.5 c 0
 470 69.1666666667 469 53 467 45 c 0
 465 37 462.833333333 30.1666666667 460.5 24.5 c 0
 458.166666667 18.8333333333 454 14.5 448 11.5 c 0
 442 8.5 435 6 427 4 c 0
 419 2 402.833333333 1 378.5 1 c 0x42
 354.166666667 1 338 1.66666666667 330 3 c 0
 322 4.33333333333 312.666666667 7.66666666667 302 13 c 1
EndSplineSet
Validated: 524289
EndChar

StartChar: colon
Encoding: 58 58 25
Width: 638
Flags: W
HStem: 0 206<86 279>
LayerCount: 2
Fore
SplineSet
86 0 m 1
 86 206 l 1
 279 206 l 1
 86 403 l 1
 86 693 l 1
 567 206 l 1
 567 0 l 1
 86 0 l 1
EndSplineSet
Validated: 1
EndChar

StartChar: semicolon
Encoding: 59 59 26
Width: 516
Flags: W
HStem: -1 21G<146 344> -1 21G<146 344> 956 20G<146 344>
VStem: 146 198<-1 976>
LayerCount: 2
Fore
SplineSet
344 976 m 1xb0
 344 -1 l 1
 146 -1 l 1
 146 976 l 1
 344 976 l 1xb0
EndSplineSet
Validated: 1
EndChar

StartChar: less
Encoding: 60 60 27
Width: 1251
Flags: W
HStem: -1 21G<27 257.812 1008 1206> -1 21G<27 257.812 1008 1206> 745 223<198 382 614 1008>
VStem: 1008 198<-1 745>
LayerCount: 2
Fore
SplineSet
1206 968 m 1xb0
 1206 -1 l 1
 1008 -1 l 1
 1008 745 l 1
 614 745 l 1
 248 -1 l 1
 27 -1 l 1
 382 728 l 1
 382 745 l 1
 198 745 l 1
 198 968 l 1
 1206 968 l 1xb0
EndSplineSet
Validated: 1
EndChar

StartChar: equal
Encoding: 61 61 28
Width: 1020
Flags: W
HStem: 0 223<277 464 561 749> 743 223<277 464 561 749>
VStem: 53 224<223 743> 749 223<223 743>
LayerCount: 2
Fore
SplineSet
911 966 m 1
 972 905 l 1
 972 61 l 1
 911 0 l 1
 561 0 l 1
 561 223 l 1
 749 223 l 1
 749 743 l 1
 561 743 l 1
 561 966 l 1
 911 966 l 1
464 966 m 1
 464 743 l 1
 277 743 l 1
 277 223 l 1
 464 223 l 1
 464 0 l 1
 115 0 l 1
 53 61 l 1
 53 905 l 1
 115 966 l 1
 464 966 l 1
EndSplineSet
Validated: 1
EndChar

StartChar: greater
Encoding: 62 62 29
Width: 1161
Flags: W
HStem: -1 21G<36 309.904 902 1126> -1 21G<36 309.904 902 1126> 373 224<556 902> 948 20G<902 1126> 948 20G<902 1126>
VStem: 902 224<-1 373 597 968>
LayerCount: 2
Fore
SplineSet
1126 968 m 1xb4
 1126 -1 l 1
 902 -1 l 1
 902 373 l 1
 556 373 l 1
 296 -1 l 1
 36 -1 l 1
 450 597 l 1
 902 597 l 1
 902 968 l 1
 1126 968 l 1xb4
EndSplineSet
Validated: 1
EndChar

StartChar: question
Encoding: 63 63 30
Width: 646
Flags: W
LayerCount: 2
Fore
SplineSet
175 24 m 1
 155 0 l 1
 378 0 l 1
 412 34 l 1
 441 76 l 1
 472 123 l 1
 503 182 l 1
 529 255 l 1
 549 330 l 1
 558 419 l 1
 564 507 l 1
 558 595 l 1
 549 676 l 1
 532 754 l 1
 512 813 l 1
 483 868 l 1
 455 915 l 1
 421 954 l 1
 401 974 l 1
 78 974 l 1
 78 507 l 1
 289 507 l 1
 289 858 l 1
 312 811 l 1
 332 754 l 1
 349 678 l 1
 363 595 l 1
 369 512 l 1
 363 429 l 1
 352 338 l 1
 332 271 l 1
 306 208 l 1
 275 156 l 1
 243 107 l 1
 209 65 l 1
 175 24 l 1
EndSplineSet
Validated: 9
EndChar

StartChar: A
Encoding: 65 65 31
Width: 1686
Flags: W
HStem: 0 21G<44 267 1193.47 1657> 0 21G<44 267 1193.47 1657> 191 225<267 864> 556 225<270 881> 952 20G<44 270 1160.33 1647> 952 20G<44 270 1160.33 1647>
VStem: 44 223<0 191 781 972>
LayerCount: 2
Fore
SplineSet
44 972 m 1x3a
 270 972 l 1
 270 781 l 1
 881 781 l 1
 1193 972 l 1
 1647 972 l 1
 881 556 l 1
 44 556 l 1
 44 972 l 1x3a
44 416 m 1
 906 416 l 1
 1657 0 l 1
 1232 0 l 1
 864 191 l 1
 267 191 l 1
 267 0 l 1
 44 0 l 1xb2
 44 416 l 1
EndSplineSet
Validated: 1
EndChar

StartChar: B
Encoding: 66 66 32
Width: 1566
Flags: W
HStem: -1 215<388 1178> 370 232<480 1113> 748 217<392 1180>
LayerCount: 2
Fore
SplineSet
309 965 m 1
 1259 965 l 1
 1538 650 l 1
 1538 599 l 1
 1292 599 l 1
 1180 748 l 1
 392 748 l 1
 275 599 l 1
 30 599 l 1
 30 650 l 1
 309 965 l 1
480 602 m 1
 1113 602 l 1
 1113 370 l 1
 480 370 l 1
 480 602 l 1
27 343 m 1
 273 343 l 1
 388 214 l 1
 1178 214 l 1
 1291 341 l 1
 1536 341 l 1
 1536 296 l 1
 1257 -1 l 1
 306 -1 l 1
 27 296 l 1
 27 343 l 1
EndSplineSet
Validated: 1
EndChar

StartChar: C
Encoding: 67 67 33
Width: 901
Flags: W
HStem: 0 21G<629 854> 0 21G<629 854>
VStem: 38 225<298 966> 335 222<298 668> 629 225<0 668>
CounterMasks: 1 38
LayerCount: 2
Fore
SplineSet
38 966 m 1x38
 263 966 l 1
 263 298 l 1
 38 298 l 1
 38 966 l 1x38
335 668 m 1
 557 668 l 1
 557 298 l 1
 335 298 l 1
 335 668 l 1
629 668 m 1
 854 668 l 1
 854 0 l 1
 629 0 l 1xb8
 629 668 l 1
EndSplineSet
Validated: 1
EndChar

StartChar: D
Encoding: 68 68 34
Width: 1240
Flags: W
HStem: 0 21G<102 410.962> 0 21G<102 410.962> 370 222<226 430> 744 221<165 753>
LayerCount: 2
Fore
SplineSet
1201 965 m 1xb0
 1198 948 l 1
 394 0 l 1
 102 0 l 1
 430 370 l 1
 74 370 l 1
 226 592 l 1
 623 592 l 1
 753 743 l 1
 22 744 l 1
 165 965 l 1
 1201 965 l 1xb0
EndSplineSet
Validated: 1
EndChar

StartChar: E
Encoding: 69 69 35
Width: 1510
Flags: W
HStem: 0 21G<476.401 754.506 1129 1331> 0 21G<476.401 754.506 1129 1331> 749 224<1101 1129 1331 1480>
VStem: 1129 202<0 749>
LayerCount: 2
Fore
SplineSet
1480 973 m 1xb0
 1480 749 l 1
 1331 749 l 1
 1331 0 l 1
 1129 0 l 1
 1129 749 l 1
 1101 749 l 1
 745 0 l 1
 486 0 l 1
 19 973 l 1
 270 973 l 1
 618 277 l 1
 955 973 l 1
 1480 973 l 1xb0
EndSplineSet
Validated: 1
EndChar

StartChar: F
Encoding: 70 70 36
Width: 1516
Flags: W
HStem: 0 223<261 647 852 1476> 452 218<260 551.676> 947 20G<646.923 852> 947 20G<646.923 852>
VStem: 40 221<223 452> 647 205<223 474 734 967>
LayerCount: 2
Fore
SplineSet
852 967 m 1xec
 852 734 l 1
 977.333333333 754.666666667 1077.33333333 778.666666667 1152 806 c 0
 1226.66666667 833.333333333 1334.66666667 891.333333333 1476 980 c 1
 1476 780 l 1
 1364 705.333333333 1264.33333333 650.166666667 1177 614.5 c 0
 1089.66666667 578.833333333 981.333333333 547.666666667 852 521 c 1
 852 223 l 1
 1476 223 l 1
 1476 0 l 1
 40 0 l 1
 40 669 l 1
 302 670 l 1
 420.666666667 675.333333333 535.333333333 687.333333333 646 706 c 1
 647 967 l 1
 852 967 l 1xec
261 223 m 1
 647 223 l 1
 647 474 l 1
 557 462 463.333333333 454.666666667 366 452 c 1
 260 452 l 1
 261 223 l 1
EndSplineSet
Validated: 524289
EndChar

StartChar: G
Encoding: 71 71 37
Width: 1495
Flags: W
HStem: 0 225<249 810> 714 261<436 622> 773 202<622 1090>
VStem: 66 183<225 975>
LayerCount: 2
Fore
SplineSet
1444 975 m 1xb0
 1441 958 l 1
 918 0 l 1
 66 0 l 1
 66 975 l 1
 249 975 l 1
 249 225 l 1
 810 225 l 1
 1090 767 l 1
 1090 773 l 1
 622 773 l 1xb0
 622 714 l 1
 436 714 l 1
 436 975 l 1xd0
 1444 975 l 1xb0
EndSplineSet
Validated: 1
EndChar

StartChar: H
Encoding: 72 72 38
Width: 1570
Flags: W
HStem: 0 225<25 1539> 377 224<285 1279> 751 224<25 1539>
LayerCount: 2
Fore
SplineSet
1539 975 m 1
 1539 751 l 1
 25 751 l 1
 25 975 l 1
 1539 975 l 1
285 601 m 1
 1279 601 l 1
 1279 377 l 1
 285 377 l 1
 285 601 l 1
25 225 m 1
 1539 225 l 1
 1539 0 l 1
 25 0 l 1
 25 225 l 1
EndSplineSet
Validated: 1
EndChar

StartChar: I
Encoding: 73 73 39
Width: 629
Flags: W
HStem: 0 21G<387 572> 0 21G<387 572> 955 20G<311.356 572>
VStem: 387 185<0 730>
LayerCount: 2
Fore
SplineSet
572 975 m 1xb0
 572 0 l 1
 387 0 l 1
 387 730 l 1
 190 534 l 1
 47 678 l 2
 45 683.333333333 47.6666666667 688.666666667 55 694 c 2
 331 975 l 1
 572 975 l 1xb0
EndSplineSet
Validated: 524289
EndChar

StartChar: J
Encoding: 74 74 40
Width: 1461
Flags: W
HStem: 0 219<52 824> 381 219<56 485.797> 952 20G<1144 1426> 952 20G<1144 1426>
LayerCount: 2
Fore
SplineSet
1426 971 m 1xe0
 960 0 l 1
 52 0 l 1
 52 219 l 1
 824 219 l 1
 960 523 l 1
 890.666666667 482.333333333 826.666666667 454.666666667 768 440 c 0
 709.333333333 425.333333333 642 412.5 566 401.5 c 0
 490 390.5 366.666666667 383.666666667 196 381 c 1
 56 381 l 1
 56 600 l 1
 200 600 l 1
 368 610.666666667 476 619.333333333 524 626 c 0
 572 632.666666667 637.333333333 648.333333333 720 673 c 1
 821.333333333 710.333333333 904 746 968 780 c 0
 1032 814 1104 878 1184 972 c 1
 1426 971 l 1xe0
EndSplineSet
Validated: 524289
EndChar

StartChar: K
Encoding: 75 75 41
Width: 1521
Flags: W
HStem: 0 224<63 1243> 748 223<63 1243>
VStem: 1243 221<224 748>
LayerCount: 2
Fore
SplineSet
1437 971 m 1
 1449.66666667 965.666666667 1458.66666667 956.333333333 1464 943 c 1
 1464 33 l 1
 1459.33333333 17 1448.66666667 6 1432 0 c 1
 63 0 l 1
 63 224 l 1
 1243 224 l 1
 1243 748 l 1
 63 748 l 1
 63 971 l 1
 1437 971 l 1
EndSplineSet
Validated: 524289
EndChar

StartChar: L
Encoding: 76 76 42
Width: 1007
Flags: W
HStem: -1 21G<653.492 944> -1 21G<653.492 944> 956 20G<746 944>
VStem: 746 198<222 976>
LayerCount: 2
Fore
SplineSet
944 976 m 1xb0
 944 -1 l 1
 684 -1 l 1
 54 412 l 1
 171 595 l 1
 746 222 l 1
 746 976 l 1
 944 976 l 1xb0
EndSplineSet
Validated: 1
EndChar

StartChar: M
Encoding: 77 77 43
Width: 1000
Flags: W
HStem: 0 224<409 826> 711 261<686 894>
LayerCount: 2
Fore
SplineSet
894 972 m 1
 894 711 l 1
 686 709 l 1
 409 224 l 1
 961 224 l 1
 826 0 l 1
 31 0 l 1
 566 972 l 1
 894 972 l 1
EndSplineSet
Validated: 1
EndChar

StartChar: N
Encoding: 78 78 44
Width: 1582
Flags: W
HStem: 0 21G<211 486.573 1289.11 1552> 0 21G<211 486.573 1289.11 1552> 952 20G<173 376 740.54 1019.19> 952 20G<173 376 740.54 1019.19>
LayerCount: 2
Fore
SplineSet
318 188 m 1xa0
 342 190 l 1
 751 972 l 1
 1008 972 l 1
 1552 0 l 1
 1300 0 l 1
 882 768 l 1
 476 0 l 1
 226 0 l 1
 211 1 l 1
 186 37 l 1
 163 76 l 1
 132 130 l 1
 105 192 l 1
 79 257 l 1
 64 332 l 1
 48 417 l 1
 42 505 l 1
 48 593 l 1
 56 673 l 1
 72 751 l 1
 89 810 l 1
 116 864 l 1
 142 911 l 1
 173 950 l 1
 191 970 l 1
 376 970 l 1
 344 939 l 1
 318 901 l 1
 292 854 l 1
 272 808 l 1
 254 751 l 1
 238 676 l 1
 225 593 l 1
 220 510 l 1
 225 427 l 1
 241 339 l 1
 261 272 l 1
 282 231 l 1
 318 188 l 1xa0
EndSplineSet
Validated: 1
EndChar

StartChar: O
Encoding: 79 79 45
Width: 1388
Flags: W
HStem: 0 213<263 1134> 748 224<487 908>
LayerCount: 2
Fore
SplineSet
1036 972 m 1
 1367 199 l 1
 1235 0 l 1
 168 0 l 1
 31 202 l 1
 350 972 l 1
 1036 972 l 1
263 213 m 1
 1134 213 l 1
 908 748 l 1
 487 748 l 1
 263 213 l 1
EndSplineSet
Validated: 1
EndChar

StartChar: P
Encoding: 80 80 46
Width: 1022
Flags: W
HStem: 0 222<287.809 743> 732 234<371 593>
VStem: 35 223.75<278.381 574.227> 743 224<222 967>
LayerCount: 2
Fore
SplineSet
967 967 m 1
 967 0 l 1
 231 0 l 1
 108.333333333 89.3333333333 43 234 35 434 c 1
 51 648.666666667 130.333333333 826 273 966 c 1
 593 966 l 1
 593 732 l 1
 371 732 l 1
 371 784 l 1
 335 784 l 1
 284.333333333 725.333333333 259 608.666666667 259 434 c 1
 258.833333333 425.916666667 258.75 418.0625 258.75 410.4375 c 0
 258.75 296.0625 277.5 233.25 315 222 c 1
 743 222 l 1
 743 968 l 1
 967 967 l 1
EndSplineSet
Validated: 524289
EndChar

StartChar: Q
Encoding: 81 81 47
Width: 1333
Flags: W
HStem: 0 224<252 644> 770 202<252 1073>
VStem: 39 213<224 770> 1073 224<585 770>
LayerCount: 2
Fore
SplineSet
1261 972 m 1
 1297 936 l 1
 1297 585 l 1
 1073 585 l 1
 1073 770 l 1
 252 770 l 1
 252 224 l 1
 941 224 l 1
 644 0 l 1
 112 0 l 1
 39 73 l 1
 39 933 l 1
 78 972 l 1
 1261 972 l 1
EndSplineSet
Validated: 1
EndChar

StartChar: R
Encoding: 82 82 48
Width: 1302
Flags: W
HStem: 0 21G<176 475.79> 0 21G<176 475.79> 737 235<232 776>
LayerCount: 2
Fore
SplineSet
1275 972 m 1xa0
 459 0 l 1
 176 0 l 1
 776 720 l 1
 776 737 l 1
 56 737 l 1
 232 972 l 1
 1275 972 l 1xa0
EndSplineSet
Validated: 1
EndChar

StartChar: S
Encoding: 83 83 49
Width: 1479
Flags: W
HStem: 0 21G<722.569 786.128 1123.98 1429> 0 21G<722.569 786.128 1123.98 1429> 952 20G<171 501.946 1221 1429> 952 20G<171 501.946 1221 1429>
VStem: 1221 208<231 972>
LayerCount: 2
Fore
SplineSet
482 972 m 1xa8
 1221 231 l 1
 1221 972 l 1
 1429 972 l 1
 1429 0 l 1
 1144 0 l 1
 171 972 l 1
 482 972 l 1xa8
90 462 m 5
 846 188 l 5
 779 0 l 5
 20 269 l 5
 90 462 l 5
EndSplineSet
Validated: 1
EndChar

StartChar: T
Encoding: 84 84 50
Width: 1607
Flags: W
HStem: 0 185<639 700 888 952> 952 20G<700 888> 952 20G<700 888>
VStem: 700 188<188 972>
LayerCount: 2
Fore
SplineSet
888 972 m 1xd0
 888 185 l 1
 952 185 l 1
 1283 521 l 1
 1574 521 l 1
 1050 0 l 1
 541 0 l 1
 12 524 l 1
 305 524 l 1
 639 188 l 1
 700 188 l 1
 700 972 l 1
 888 972 l 1xd0
EndSplineSet
Validated: 1
EndChar

StartChar: U
Encoding: 85 85 51
Width: 1421
Flags: W
HStem: 0 210<263 1160> 748 224<871 1160>
VStem: 39 224<210 972> 1160 224<210 748>
LayerCount: 2
Fore
SplineSet
1336 972 m 1
 1384 924 l 1
 1384 50 l 1
 1333 0 l 1
 39 0 l 1
 39 972 l 1
 263 972 l 1
 263 210 l 1
 1160 210 l 1
 1160 748 l 1
 871 748 l 1
 734 563 l 1
 445 563 l 1
 751 972 l 1
 1336 972 l 1
EndSplineSet
Validated: 1
EndChar

StartChar: V
Encoding: 86 86 52
Width: 1261
Flags: W
HStem: 0 21G<538 725> 0 21G<538 725> 952 20G<36 372.77 890.307 1227> 952 20G<36 372.77 890.307 1227>
VStem: 538 187<0 468>
LayerCount: 2
Fore
SplineSet
353 972 m 1xa8
 611 711 l 1
 653 711 l 1
 910 972 l 1
 1227 972 l 1
 725 468 l 1
 725 0 l 1
 538 0 l 1
 538 468 l 1
 36 969 l 1
 353 972 l 1xa8
EndSplineSet
Validated: 1
EndChar

StartChar: W
Encoding: 87 87 53
Width: 1469
Flags: W
HStem: 0 235<241 1248> 748 222<241 1248>
VStem: 21 220<235 748> 1248 193<235 748>
LayerCount: 2
Fore
SplineSet
1427 958 m 1
 1435 942 l 1
 1441 906 l 1
 1441 60 l 1
 1436 29 l 1
 1428 12 l 1
 1408 6 l 1
 1370 0 l 1
 95 0 l 1
 55 4 l 1
 35 15 l 1
 27 35 l 1
 21 65 l 1
 21 906 l 1
 26 936 l 1
 34 958 l 1
 54 968 l 1
 92 970 l 1
 1370 970 l 1
 1410 965 l 1
 1427 958 l 1
1248 235 m 1
 1248 748 l 1
 241 748 l 1
 241 235 l 1
 1248 235 l 1
EndSplineSet
Validated: 1
EndChar

StartChar: X
Encoding: 88 88 54
Width: 1209
Flags: W
HStem: 0 192<315 899> 950 20G<502.886 737.241> 950 20G<502.886 737.241>
LayerCount: 2
Fore
SplineSet
1173 99 m 1xc0
 963 0 l 1
 239 0 l 1
 30 99 l 1
 514 970 l 1
 727 970 l 1
 1173 99 l 1xc0
899 192 m 1
 621 756 l 1
 315 192 l 1
 899 192 l 1
EndSplineSet
Validated: 1
EndChar

StartChar: Y
Encoding: 89 89 55
Width: 1428
Flags: W
HStem: 0 21G<512.899 871.047> 0 21G<512.899 871.047> 864 110<278 388>
LayerCount: 2
Fore
SplineSet
1398 974 m 1xa0
 860 0 l 1
 524 0 l 1
 30 890 l 1
 30 936 l 1
 57 967 l 1
 90 974 l 1
 541 974 l 1
 768 570 l 1
 534 570 l 1
 388 864 l 1
 278 864 l 1
 670 156 l 1
 720 156 l 1
 1178 974 l 1
 1398 974 l 1xa0
EndSplineSet
Validated: 1
EndChar

StartChar: Z
Encoding: 90 90 56
Width: 1293
Flags: W
HStem: -1 226<295 1041> 560 221<577 1041> 948 20G<1041 1265> 948 20G<1041 1265>
VStem: 1041 224<225 560 781 968>
LayerCount: 2
Fore
SplineSet
1265 968 m 1xe8
 1265 -1 l 1
 86 -1 l 1
 36 49 l 1
 36 317 l 1
 295 317 l 1
 295 225 l 1
 1041 225 l 1
 1041 560 l 1
 577 560 l 1
 429 409 l 1
 91 409 l 1
 463 781 l 1
 1041 781 l 1
 1041 968 l 1
 1265 968 l 1xe8
EndSplineSet
Validated: 1
EndChar

StartChar: bracketleft
Encoding: 91 91 57
Width: 1420
Flags: W
HStem: -1 206<264 1178> 390 204<597 1178> 764 204<264 1178>
VStem: 41 223<205 393 563 764> 1178 204<205 390 594 764>
LayerCount: 2
Fore
SplineSet
1382 968 m 1
 1382 -1 l 1
 102 -1 l 1
 41 60 l 1
 41 393 l 1
 264 393 l 1
 264 205 l 1
 1178 205 l 1
 1178 390 l 1
 597 390 l 1
 597 594 l 1
 1178 594 l 1
 1178 764 l 1
 264 764 l 1
 264 563 l 1
 41 563 l 1
 41 918 l 1
 91 968 l 1
 1382 968 l 1
EndSplineSet
Validated: 1
EndChar

StartChar: backslash
Encoding: 92 92 58
Width: 557
Flags: W
LayerCount: 2
Fore
SplineSet
111 550 m 1
 297 404 l 1
 297 0 l 1
 517 0 l 1
 517 402 l 1
 329 550 l 1
 329 978 l 1
 110 977 l 1
 111 550 l 1
EndSplineSet
Validated: 9
EndChar

StartChar: bracketright
Encoding: 93 93 59
Width: 1557
Flags: W
HStem: -1 226<20 1190> 745 223<20 936>
LayerCount: 2
Fore
SplineSet
1064 968 m 1
 1531 -1 l 1
 20 -1 l 1
 20 225 l 1
 1190 225 l 1
 936 745 l 1
 20 745 l 1
 20 968 l 1
 1064 968 l 1
EndSplineSet
Validated: 1
EndChar

StartChar: a
Encoding: 97 97 60
Width: 1686
Flags: W
HStem: 0 21G<44 267 1193.47 1657> 0 21G<44 267 1193.47 1657> 191 225<267 864> 556 225<270 881> 952 20G<44 270 1160.33 1647> 952 20G<44 270 1160.33 1647>
VStem: 44 223<0 191 781 972>
LayerCount: 2
Fore
SplineSet
44 972 m 1x3a
 270 972 l 1
 270 781 l 1
 881 781 l 1
 1193 972 l 1
 1647 972 l 1
 881 556 l 1
 44 556 l 1
 44 972 l 1x3a
44 416 m 1
 906 416 l 1
 1657 0 l 1
 1232 0 l 1
 864 191 l 1
 267 191 l 1
 267 0 l 1
 44 0 l 1xb2
 44 416 l 1
EndSplineSet
Validated: 1
EndChar

StartChar: b
Encoding: 98 98 61
Width: 1566
Flags: W
HStem: -1 215<388 1178> 370 232<480 1113> 748 217<392 1180>
LayerCount: 2
Fore
SplineSet
309 965 m 1
 1259 965 l 1
 1538 650 l 1
 1538 599 l 1
 1292 599 l 1
 1180 748 l 1
 392 748 l 1
 275 599 l 1
 30 599 l 1
 30 650 l 1
 309 965 l 1
480 602 m 1
 1113 602 l 1
 1113 370 l 1
 480 370 l 1
 480 602 l 1
27 343 m 1
 273 343 l 1
 388 214 l 1
 1178 214 l 1
 1291 341 l 1
 1536 341 l 1
 1536 296 l 1
 1257 -1 l 1
 306 -1 l 1
 27 296 l 1
 27 343 l 1
EndSplineSet
Validated: 1
EndChar

StartChar: c
Encoding: 99 99 62
Width: 901
Flags: W
HStem: 0 21G<629 854> 0 21G<629 854>
VStem: 38 225<298 966> 335 222<298 668> 629 225<0 668>
CounterMasks: 1 38
LayerCount: 2
Fore
SplineSet
38 966 m 1x38
 263 966 l 1
 263 298 l 1
 38 298 l 1
 38 966 l 1x38
335 668 m 1
 557 668 l 1
 557 298 l 1
 335 298 l 1
 335 668 l 1
629 668 m 1
 854 668 l 1
 854 0 l 1
 629 0 l 1xb8
 629 668 l 1
EndSplineSet
Validated: 1
EndChar

StartChar: d
Encoding: 100 100 63
Width: 1240
Flags: W
HStem: 0 21G<102 410.962> 0 21G<102 410.962> 370 222<226 430> 744 221<165 753>
LayerCount: 2
Fore
SplineSet
1201 965 m 1xb0
 1198 948 l 1
 394 0 l 1
 102 0 l 1
 430 370 l 1
 74 370 l 1
 226 592 l 1
 623 592 l 1
 753 743 l 1
 22 744 l 1
 165 965 l 1
 1201 965 l 1xb0
EndSplineSet
Validated: 1
EndChar

StartChar: e
Encoding: 101 101 64
Width: 1510
Flags: W
HStem: 0 21G<476.401 754.506 1129 1331> 0 21G<476.401 754.506 1129 1331> 749 224<1101 1129 1331 1480>
VStem: 1129 202<0 749>
LayerCount: 2
Fore
SplineSet
1480 973 m 1xb0
 1480 749 l 1
 1331 749 l 1
 1331 0 l 1
 1129 0 l 1
 1129 749 l 1
 1101 749 l 1
 745 0 l 1
 486 0 l 1
 19 973 l 1
 270 973 l 1
 618 277 l 1
 955 973 l 1
 1480 973 l 1xb0
EndSplineSet
Validated: 1
EndChar

StartChar: f
Encoding: 102 102 65
Width: 1516
Flags: W
HStem: 0 223<261 647 852 1476> 452 218<260 551.676> 947 20G<646.923 852> 947 20G<646.923 852>
VStem: 40 221<223 452> 647 205<223 474 734 967>
LayerCount: 2
Fore
SplineSet
852 967 m 1xec
 852 734 l 1
 977.333333333 754.666666667 1077.33333333 778.666666667 1152 806 c 0
 1226.66666667 833.333333333 1334.66666667 891.333333333 1476 980 c 1
 1476 780 l 1
 1364 705.333333333 1264.33333333 650.166666667 1177 614.5 c 0
 1089.66666667 578.833333333 981.333333333 547.666666667 852 521 c 1
 852 223 l 1
 1476 223 l 1
 1476 0 l 1
 40 0 l 1
 40 669 l 1
 302 670 l 1
 420.666666667 675.333333333 535.333333333 687.333333333 646 706 c 1
 647 967 l 1
 852 967 l 1xec
261 223 m 1
 647 223 l 1
 647 474 l 1
 557 462 463.333333333 454.666666667 366 452 c 1
 260 452 l 1
 261 223 l 1
EndSplineSet
Validated: 524289
EndChar

StartChar: g
Encoding: 103 103 66
Width: 1495
Flags: W
HStem: 0 225<249 810> 714 261<436 622> 773 202<622 1090>
VStem: 66 183<225 975>
LayerCount: 2
Fore
SplineSet
1444 975 m 1xb0
 1441 958 l 1
 918 0 l 1
 66 0 l 1
 66 975 l 1
 249 975 l 1
 249 225 l 1
 810 225 l 1
 1090 767 l 1
 1090 773 l 1
 622 773 l 1xb0
 622 714 l 1
 436 714 l 1
 436 975 l 1xd0
 1444 975 l 1xb0
EndSplineSet
Validated: 1
EndChar

StartChar: h
Encoding: 104 104 67
Width: 1570
Flags: W
HStem: 0 225<25 1539> 377 224<285 1279> 751 224<25 1539>
LayerCount: 2
Fore
SplineSet
1539 975 m 1
 1539 751 l 1
 25 751 l 1
 25 975 l 1
 1539 975 l 1
285 601 m 1
 1279 601 l 1
 1279 377 l 1
 285 377 l 1
 285 601 l 1
25 225 m 1
 1539 225 l 1
 1539 0 l 1
 25 0 l 1
 25 225 l 1
EndSplineSet
Validated: 1
EndChar

StartChar: i
Encoding: 105 105 68
Width: 629
Flags: W
HStem: 0 21G<387 572> 0 21G<387 572> 955 20G<311.356 572>
VStem: 387 185<0 730>
LayerCount: 2
Fore
SplineSet
572 975 m 1xb0
 572 0 l 1
 387 0 l 1
 387 730 l 1
 190 534 l 1
 47 678 l 2
 45 683.333333333 47.6666666667 688.666666667 55 694 c 2
 331 975 l 1
 572 975 l 1xb0
EndSplineSet
Validated: 524289
EndChar

StartChar: j
Encoding: 106 106 69
Width: 1461
Flags: W
HStem: 0 219<52 824> 381 219<56 485.797> 952 20G<1144 1426> 952 20G<1144 1426>
LayerCount: 2
Fore
SplineSet
1426 971 m 1xe0
 960 0 l 1
 52 0 l 1
 52 219 l 1
 824 219 l 1
 960 523 l 1
 890.666666667 482.333333333 826.666666667 454.666666667 768 440 c 0
 709.333333333 425.333333333 642 412.5 566 401.5 c 0
 490 390.5 366.666666667 383.666666667 196 381 c 1
 56 381 l 1
 56 600 l 1
 200 600 l 1
 368 610.666666667 476 619.333333333 524 626 c 0
 572 632.666666667 637.333333333 648.333333333 720 673 c 1
 821.333333333 710.333333333 904 746 968 780 c 0
 1032 814 1104 878 1184 972 c 1
 1426 971 l 1xe0
EndSplineSet
Validated: 524289
EndChar

StartChar: k
Encoding: 107 107 70
Width: 1521
Flags: W
HStem: 0 224<63 1243> 748 223<63 1243>
VStem: 1243 221<224 748>
LayerCount: 2
Fore
SplineSet
1437 971 m 1
 1449.66666667 965.666666667 1458.66666667 956.333333333 1464 943 c 1
 1464 33 l 1
 1459.33333333 17 1448.66666667 6 1432 0 c 1
 63 0 l 1
 63 224 l 1
 1243 224 l 1
 1243 748 l 1
 63 748 l 1
 63 971 l 1
 1437 971 l 1
EndSplineSet
Validated: 524289
EndChar

StartChar: l
Encoding: 108 108 71
Width: 1007
Flags: W
HStem: -1 21G<653.492 944> -1 21G<653.492 944> 956 20G<746 944>
VStem: 746 198<222 976>
LayerCount: 2
Fore
SplineSet
944 976 m 1xb0
 944 -1 l 1
 684 -1 l 1
 54 412 l 1
 171 595 l 1
 746 222 l 1
 746 976 l 1
 944 976 l 1xb0
EndSplineSet
Validated: 1
EndChar

StartChar: m
Encoding: 109 109 72
Width: 1000
Flags: W
HStem: 0 224<409 826> 711 261<686 894>
LayerCount: 2
Fore
SplineSet
894 972 m 1
 894 711 l 1
 686 709 l 1
 409 224 l 1
 961 224 l 1
 826 0 l 1
 31 0 l 1
 566 972 l 1
 894 972 l 1
EndSplineSet
Validated: 1
EndChar

StartChar: n
Encoding: 110 110 73
Width: 1582
Flags: W
HStem: 0 21G<211 486.573 1289.11 1552> 0 21G<211 486.573 1289.11 1552> 952 20G<173 376 740.54 1019.19> 952 20G<173 376 740.54 1019.19>
LayerCount: 2
Fore
SplineSet
318 188 m 1xa0
 342 190 l 1
 751 972 l 1
 1008 972 l 1
 1552 0 l 1
 1300 0 l 1
 882 768 l 1
 476 0 l 1
 226 0 l 1
 211 1 l 1
 186 37 l 1
 163 76 l 1
 132 130 l 1
 105 192 l 1
 79 257 l 1
 64 332 l 1
 48 417 l 1
 42 505 l 1
 48 593 l 1
 56 673 l 1
 72 751 l 1
 89 810 l 1
 116 864 l 1
 142 911 l 1
 173 950 l 1
 191 970 l 1
 376 970 l 1
 344 939 l 1
 318 901 l 1
 292 854 l 1
 272 808 l 1
 254 751 l 1
 238 676 l 1
 225 593 l 1
 220 510 l 1
 225 427 l 1
 241 339 l 1
 261 272 l 1
 282 231 l 1
 318 188 l 1xa0
EndSplineSet
Validated: 1
EndChar

StartChar: o
Encoding: 111 111 74
Width: 1388
Flags: W
HStem: 0 213<263 1134> 748 224<487 908>
LayerCount: 2
Fore
SplineSet
1036 972 m 1
 1367 199 l 1
 1235 0 l 1
 168 0 l 1
 31 202 l 1
 350 972 l 1
 1036 972 l 1
263 213 m 1
 1134 213 l 1
 908 748 l 1
 487 748 l 1
 263 213 l 1
EndSplineSet
Validated: 1
EndChar

StartChar: p
Encoding: 112 112 75
Width: 1022
Flags: W
HStem: 0 222<287.809 743> 732 234<371 593>
VStem: 35 223.75<278.381 574.227> 743 224<222 967>
LayerCount: 2
Fore
SplineSet
967 967 m 1
 967 0 l 1
 231 0 l 1
 108.333333333 89.3333333333 43 234 35 434 c 1
 51 648.666666667 130.333333333 826 273 966 c 1
 593 966 l 1
 593 732 l 1
 371 732 l 1
 371 784 l 1
 335 784 l 1
 284.333333333 725.333333333 259 608.666666667 259 434 c 1
 258.833333333 425.916666667 258.75 418.0625 258.75 410.4375 c 0
 258.75 296.0625 277.5 233.25 315 222 c 1
 743 222 l 1
 743 968 l 1
 967 967 l 1
EndSplineSet
Validated: 524289
EndChar

StartChar: q
Encoding: 113 113 76
Width: 1333
Flags: W
HStem: 0 224<252 644> 770 202<252 1073>
VStem: 39 213<224 770> 1073 224<585 770>
LayerCount: 2
Fore
SplineSet
1261 972 m 1
 1297 936 l 1
 1297 585 l 1
 1073 585 l 1
 1073 770 l 1
 252 770 l 1
 252 224 l 1
 941 224 l 1
 644 0 l 1
 112 0 l 1
 39 73 l 1
 39 933 l 1
 78 972 l 1
 1261 972 l 1
EndSplineSet
Validated: 1
EndChar

StartChar: r
Encoding: 114 114 77
Width: 1302
Flags: W
HStem: 0 21G<176 475.79> 0 21G<176 475.79> 737 235<232 776>
LayerCount: 2
Fore
SplineSet
1275 972 m 1xa0
 459 0 l 1
 176 0 l 1
 776 720 l 1
 776 737 l 1
 56 737 l 1
 232 972 l 1
 1275 972 l 1xa0
EndSplineSet
Validated: 1
EndChar

StartChar: s
Encoding: 115 115 78
Width: 1479
Flags: W
HStem: 0 21G<722.569 786.128 1123.98 1429> 0 21G<722.569 786.128 1123.98 1429> 952 20G<171 501.946 1221 1429> 952 20G<171 501.946 1221 1429>
VStem: 1221 208<231 972>
LayerCount: 2
Fore
SplineSet
482 972 m 1xa8
 1221 231 l 1
 1221 972 l 1
 1429 972 l 1
 1429 0 l 1
 1144 0 l 1
 171 972 l 1
 482 972 l 1xa8
90 462 m 1
 846 188 l 1
 779 0 l 1
 20 269 l 1
 90 462 l 1
EndSplineSet
Validated: 1
EndChar

StartChar: t
Encoding: 116 116 79
Width: 1607
Flags: W
HStem: 0 185<639 700 888 952> 952 20G<700 888> 952 20G<700 888>
VStem: 700 188<188 972>
LayerCount: 2
Fore
SplineSet
888 972 m 1xd0
 888 185 l 1
 952 185 l 1
 1283 521 l 1
 1574 521 l 1
 1050 0 l 1
 541 0 l 1
 12 524 l 1
 305 524 l 1
 639 188 l 1
 700 188 l 1
 700 972 l 1
 888 972 l 1xd0
EndSplineSet
Validated: 1
EndChar

StartChar: u
Encoding: 117 117 80
Width: 1421
Flags: W
HStem: 0 210<263 1160> 748 224<871 1160>
VStem: 39 224<210 972> 1160 224<210 748>
LayerCount: 2
Fore
SplineSet
1336 972 m 1
 1384 924 l 1
 1384 50 l 1
 1333 0 l 1
 39 0 l 1
 39 972 l 1
 263 972 l 1
 263 210 l 1
 1160 210 l 1
 1160 748 l 1
 871 748 l 1
 734 563 l 1
 445 563 l 1
 751 972 l 1
 1336 972 l 1
EndSplineSet
Validated: 1
EndChar

StartChar: v
Encoding: 118 118 81
Width: 1261
Flags: W
HStem: 0 21G<538 725> 0 21G<538 725> 952 20G<36 372.77 890.307 1227> 952 20G<36 372.77 890.307 1227>
VStem: 538 187<0 468>
LayerCount: 2
Fore
SplineSet
353 972 m 1xa8
 611 711 l 1
 653 711 l 1
 910 972 l 1
 1227 972 l 1
 725 468 l 1
 725 0 l 1
 538 0 l 1
 538 468 l 1
 36 969 l 1
 353 972 l 1xa8
EndSplineSet
Validated: 1
EndChar

StartChar: w
Encoding: 119 119 82
Width: 1469
Flags: W
HStem: 0 235<241 1248> 748 222<241 1248>
VStem: 21 220<235 748> 1248 193<235 748>
LayerCount: 2
Fore
SplineSet
1427 958 m 1
 1435 942 l 1
 1441 906 l 1
 1441 60 l 1
 1436 29 l 1
 1428 12 l 1
 1408 6 l 1
 1370 0 l 1
 95 0 l 1
 55 4 l 1
 35 15 l 1
 27 35 l 1
 21 65 l 1
 21 906 l 1
 26 936 l 1
 34 958 l 1
 54 968 l 1
 92 970 l 1
 1370 970 l 1
 1410 965 l 1
 1427 958 l 1
1248 235 m 1
 1248 748 l 1
 241 748 l 1
 241 235 l 1
 1248 235 l 1
EndSplineSet
Validated: 1
EndChar

StartChar: x
Encoding: 120 120 83
Width: 1209
Flags: W
HStem: 0 192<315 899> 950 20G<502.886 737.241> 950 20G<502.886 737.241>
LayerCount: 2
Fore
SplineSet
1173 99 m 1xc0
 963 0 l 1
 239 0 l 1
 30 99 l 1
 514 970 l 1
 727 970 l 1
 1173 99 l 1xc0
899 192 m 1
 621 756 l 1
 315 192 l 1
 899 192 l 1
EndSplineSet
Validated: 1
EndChar

StartChar: y
Encoding: 121 121 84
Width: 1428
Flags: W
HStem: 0 21G<512.899 871.047> 0 21G<512.899 871.047> 864 110<278 388>
LayerCount: 2
Fore
SplineSet
1398 974 m 1xa0
 860 0 l 1
 524 0 l 1
 30 890 l 1
 30 936 l 1
 57 967 l 1
 90 974 l 1
 541 974 l 1
 768 570 l 1
 534 570 l 1
 388 864 l 1
 278 864 l 1
 670 156 l 1
 720 156 l 1
 1178 974 l 1
 1398 974 l 1xa0
EndSplineSet
Validated: 1
EndChar

StartChar: z
Encoding: 122 122 85
Width: 1293
Flags: W
HStem: -1 226<295 1041> 560 221<577 1041> 948 20G<1041 1265> 948 20G<1041 1265>
VStem: 1041 224<225 560 781 968>
LayerCount: 2
Fore
SplineSet
1265 968 m 1xe8
 1265 -1 l 1
 86 -1 l 1
 36 49 l 1
 36 317 l 1
 295 317 l 1
 295 225 l 1
 1041 225 l 1
 1041 560 l 1
 577 560 l 1
 429 409 l 1
 91 409 l 1
 463 781 l 1
 1041 781 l 1
 1041 968 l 1
 1265 968 l 1xe8
EndSplineSet
Validated: 1
EndChar

StartChar: braceleft
Encoding: 123 123 86
Width: 1648
Flags: W
HStem: 755 217<622 1010>
LayerCount: 2
Fore
SplineSet
99 227 m 1
 163 0 l 1
 1471 0 l 1
 1532 227 l 1
 99 227 l 1
94 260 m 1
 30 445 l 1
 127 492 l 1
 210 552 l 1
 292 625 l 1
 361 700 l 1
 408 786 l 1
 443 873 l 1
 470 972 l 1
 1183 972 l 1
 1203 895 l 1
 1238 797 l 1
 1285 705 l 1
 1354 620 l 1
 1437 548 l 1
 1516 497 l 1
 1614 445 l 1
 1543 260 l 1
 1423 319 l 1
 1303 397 l 1
 1179 504 l 1
 1100 589 l 1
 1046 673 l 1
 1010 755 l 1
 622 755 l 1
 574 658 l 1
 524 591 l 1
 440 497 l 1
 330 405 l 1
 210 324 l 1
 94 260 l 1
EndSplineSet
Validated: 9
EndChar

StartChar: braceright
Encoding: 125 125 87
Width: 1743
Flags: W
HStem: -1 299<25 249 360 547> -1 226<547 1117> 708 260<25 249 360 547> 773 195<547 1377>
VStem: 25 224<-1 298 708 968> 360 187<225 298 708 773>
LayerCount: 2
Fore
SplineSet
1701 968 m 1x1c
 1249 -1 l 1x5c
 360 -1 l 1
 360 298 l 1
 547 298 l 1x8c
 547 225 l 1
 1117 225 l 1
 1363 747 l 1
 1377 770 l 1
 1377 773 l 1
 547 773 l 1x5c
 547 708 l 1
 360 708 l 1
 360 968 l 1x2c
 1701 968 l 1x1c
249 968 m 1x2c
 249 708 l 1
 25 708 l 1
 25 968 l 1
 249 968 l 1x2c
25 298 m 1x8c
 249 298 l 1
 249 -1 l 1
 25 -1 l 1
 25 298 l 1x8c
EndSplineSet
Validated: 1
EndChar

StartChar: Ccedilla
Encoding: 199 -1 88
Width: 992
Flags: W
LayerCount: 2
Fore
SplineSet
872 976 m 1
 872 473 l 1
 519 473 l 1
 22 976 l 1
 305 976 l 1
 648 624 l 1
 648 976 l 1
 872 976 l 1
EndSplineSet
Validated: 1
EndChar

StartChar: ntilde
Encoding: 241 -1 89
Width: 600
Flags: W
LayerCount: 2
Fore
SplineSet
392 1085 m 1
 512 996 l 1
 332 996 l 1
 332 385 l 1
 110 598 l 1
 110 1085 l 1
 392 1085 l 1
EndSplineSet
Validated: 1
EndChar

StartChar: bullet
Encoding: 182 182 90
Width: 1048
Flags: W
LayerCount: 2
Fore
SplineSet
306 1128 m 1
 452 1144 l 1
 459 1118 l 1
 394 1076 l 1
 353 1072 l 1
 326 795 l 1
 347.333333333 846.333333333 372.333333333 881.833333333 401 901.5 c 128
 429.666666667 921.166666667 463.166666667 933.666666667 501.5 939 c 128
 539.833333333 944.333333333 578.5 944.666666667 617.5 940 c 128
 656.5 935.333333333 686.166666667 926.333333333 706.5 913 c 128
 726.833333333 899.666666667 744.166666667 878.833333333 758.5 850.5 c 128
 772.833333333 822.166666667 782.333333333 792.666666667 787 762 c 1
 794 747 l 1
 797 679 l 1
 828 431 l 1
 718 376 l 1
 722 365 l 1
 733 356 l 1
 813.666666667 376 856 375.333333333 860 354 c 1
 908 346 l 1
 925.333333333 326 925.333333333 311 908 301 c 1
 353 287 l 1
 166 264 l 1
 147.333333333 278.666666667 171.333333333 300.666666667 238 330 c 1
 355 340 l 1
 339 358 l 1
 332 377 l 1
 345 400 l 1
 348 408 l 1
 295 432 l 1
 317 679 l 1
 317 740 l 1
 307 742 299.666666667 750.333333333 295 765 c 1
 326 1071 l 1
 302 1081 l 1
 292 1111 l 1
 306 1128 l 1
615 740 m 1
 615 676 l 1
 619 668 l 1
 618 354 l 1
 647 353 l 1
 650 691 l 1
 655 691 l 1
 655 737 l 1
 615 740 l 1
466 745 m 1
 454 707 l 1
 490 699 l 1
 499 743 l 1
 466 745 l 1
408 710 m 1
 414 743 l 1
 402 745 l 1
 394 710 l 1
 408 710 l 1
348 717 m 1
 353 717 l 1
 355 733 l 1
 328 735 l 1
 328 722 l 1
 348 717 l 1
713 733 m 1
 705 693 l 1
 721 693 l 1
 734 731 l 1
 713 733 l 1
734 694 m 1
 764 693 l 1
 777 710 l 1
 778 728 l 1
 747 733 l 1
 734 694 l 1
322 707 m 1
 453 694 l 1
 533 679 l 1
 529 402 l 1
 520 475 l 2
 515.333333333 528.333333333 509.333333333 565 502 585 c 128
 494.666666667 605 484.333333333 622.833333333 471 638.5 c 128
 457.666666667 654.166666667 443.333333333 665.166666667 428 671.5 c 128
 412.666666667 677.833333333 397.333333333 681.666666667 382 683 c 128
 366.666666667 684.333333333 348.666666667 685.333333333 328 686 c 1
 322 707 l 1
662 677 m 1
 777 693 l 1
 778 665 l 1
 763.333333333 659.666666667 751.5 655.166666667 742.5 651.5 c 128
 733.5 647.833333333 725.333333333 641.166666667 718 631.5 c 128
 710.666666667 621.833333333 703 606.666666667 695 586 c 128
 687 565.333333333 679 524 671 462 c 2
 661 382 l 1
 662 677 l 1
316 715 m 1
 321 679 l 1
 337 679.666666667 354 679.5 372 678.5 c 128
 390 677.5 406.5 673 421.5 665 c 128
 436.5 657 451.166666667 645.833333333 465.5 631.5 c 128
 479.833333333 617.166666667 489.5 601 494.5 583 c 128
 499.5 565 509.333333333 498.333333333 524 383 c 1
 533 377 l 1
 539 686 l 1
 452 700 l 1
 316 715 l 1
658 685 m 1
 657 355 l 1
 665 356 l 1
 679 482 691.166666667 557.666666667 701.5 583 c 128
 711.833333333 608.333333333 720.833333333 624.833333333 728.5 632.5 c 128
 736.166666667 640.166666667 746 646.333333333 758 651 c 128
 770 655.666666667 779.333333333 658 786 658 c 1
 786 698 l 1
 658 685 l 1
524 354 m 1
 515.333333333 386 508.333333333 411.666666667 503 431 c 128
 497.666666667 450.333333333 492 470.833333333 486 492.5 c 128
 480 514.166666667 471.166666667 536.333333333 459.5 559 c 128
 447.833333333 581.666666667 429.666666667 597 405 605 c 1
 379.666666667 603.666666667 362.333333333 597 353 585 c 128
 343.666666667 573 335 556.666666667 327 536 c 128
 319 515.333333333 310.333333333 482.333333333 301 437 c 1
 524 354 l 1
792 424 m 1
 782 496 773.166666667 543.833333333 765.5 567.5 c 128
 757.833333333 591.166666667 748.333333333 600.666666667 737 596 c 1
 722.333333333 585.333333333 712.166666667 574.333333333 706.5 563 c 128
 700.833333333 551.666666667 697.166666667 539.833333333 695.5 527.5 c 128
 693.833333333 515.166666667 689.666666667 491 683 455 c 1
 679 393 l 1
 672 358 l 1
 792 419 l 1
 792 424 l 1
326 752 m 1
 322 747 l 1
 330 739 l 1
 376 745 l 1
 426 749 l 1
 495 751 l 1
 609 746 l 1
 684 739 l 1
 764 737 l 1
 787 727 l 1
 787 752 l 1
 766.333333333 760 743.833333333 765.833333333 719.5 769.5 c 128
 695.166666667 773.166666667 665 776.333333333 629 779 c 128
 593 781.666666667 557.5 782.666666667 522.5 782 c 128
 487.5 781.333333333 455.333333333 780.166666667 426 778.5 c 128
 396.666666667 776.833333333 363.333333333 768 326 752 c 1
337 755 m 1
 373.666666667 764.333333333 414 769.5 458 770.5 c 128
 502 771.5 535.5 772 558.5 772 c 128
 581.5 772 608 771.5 638 770.5 c 128
 668 769.5 695.166666667 767.166666667 719.5 763.5 c 128
 743.833333333 759.833333333 765 754 783 746 c 1
 787 733 l 1
 756 740 l 1
 650 747 l 1
 575 751 l 1
 484 752 l 1
 418 752 l 1
 361 747 l 1
 330 741 l 1
 326 746 l 1
 337 755 l 1
480 913 m 1
 518 908.333333333 547.833333333 905.5 569.5 904.5 c 128
 591.166666667 903.5 612.5 902.333333333 633.5 901 c 128
 654.5 899.666666667 667.5 900.166666667 672.5 902.5 c 128
 677.5 904.833333333 678.5 908 675.5 912 c 128
 672.5 916 666.833333333 920 658.5 924 c 128
 650.166666667 928 636 931 616 933 c 128
 596 935 578.833333333 936 564.5 936 c 128
 550.166666667 936 536.166666667 935 522.5 933 c 128
 508.833333333 931 494.666666667 924.333333333 480 913 c 1
669 891 m 1
 671.666666667 875 678.166666667 864.833333333 688.5 860.5 c 128
 698.833333333 856.166666667 707 853 713 851 c 128
 719 849 724 850.666666667 728 856 c 128
 732 861.333333333 732.166666667 867 728.5 873 c 128
 724.833333333 879 719.833333333 884 713.5 888 c 128
 707.166666667 892 701 894.833333333 695 896.5 c 128
 689 898.166666667 680.333333333 896.333333333 669 891 c 1
687 894 m 0
 697 893.333333333 705.333333333 890.666666667 712 886 c 128
 718.666666667 881.333333333 723.666666667 876.5 727 871.5 c 128
 730.333333333 866.5 730.5 863 727.5 861 c 128
 724.5 859 721.666666667 858.333333333 719 859 c 128
 716.333333333 859.666666667 712.166666667 860.666666667 706.5 862 c 128
 700.833333333 863.333333333 695.5 866.333333333 690.5 871 c 128
 685.5 875.666666667 682.333333333 880.166666667 681 884.5 c 128
 679.666666667 888.833333333 681.666666667 892 687 894 c 0
336 1074 m 1
 316 854 l 1
 343 1074 l 1
 336 1074 l 1
247 306 m 1
 208.333333333 299.333333333 183.5 293.166666667 172.5 287.5 c 128
 161.5 281.833333333 158.333333333 277.333333333 163 274 c 128
 167.666666667 270.666666667 174.333333333 269.5 183 270.5 c 128
 191.666666667 271.5 201 274.833333333 211 280.5 c 128
 221 286.166666667 233 294.666666667 247 306 c 1
913 318 m 1
 908.333333333 330.666666667 900.5 336.5 889.5 335.5 c 128
 878.5 334.5 868.666666667 331.5 860 326.5 c 128
 851.333333333 321.5 838.833333333 318 822.5 316 c 128
 806.166666667 314 792.333333333 311.666666667 781 309 c 128
 769.666666667 306.333333333 780 306.166666667 812 308.5 c 128
 844 310.833333333 877.666666667 314 913 318 c 1
250 234 m 1
 257.333333333 198 250.333333333 176.333333333 229 169 c 1
 250 158 l 1
 264.666666667 216 286.333333333 248.333333333 315 255 c 1
 386.333333333 255 425.666666667 240.333333333 433 211 c 0
 448.333333333 155 430.666666667 115.666666667 380 93 c 1
 315 93 l 1
 261 148 l 1
 253.666666667 104.666666667 203 86.3333333333 109 93 c 1
 99 200 l 1
 72 200 l 1
 72 255 l 1
 190.666666667 261.666666667 250 254.666666667 250 234 c 1
153 191 m 1
 195 191 l 1
 195 211 l 1
 153 211 l 1
 153 191 l 1
153 127 m 1
 206 138 l 1
 195 158 l 1
 153 158 l 1
 153 127 l 1
336 127 m 1
 380 138 l 1
 367 211 l 1
 315 200 l 1
 307 165.333333333 314 141 336 127 c 1
444 255 m 1
 537.333333333 261.666666667 587.333333333 254.666666667 594 234 c 0
 602.666666667 198 595.666666667 176.333333333 573 169 c 1
 595.666666667 176.333333333 607 166 607 138 c 1
 648 255 l 1
 723 255 l 1
 766 127 l 1
 766 93 l 1
 660 127 l 1
 637 93 l 1
 584 117 l 1
 555.333333333 94.3333333333 508.666666667 86.3333333333 444 93 c 1
 444 255 l 1
499 191 m 1
 541 191 l 1
 541 211 l 1
 499 211 l 1
 499 191 l 1
499 127 m 1
 551 138 l 1
 541 158 l 1
 499 158 l 1
 499 127 l 1
671 158 m 1
 704 158 l 1
 693 211 l 1
 671 191 l 1
 671 158 l 1
200 69 m 1
 351 69 l 1
 351 15 l 1
 276 4 l 1
 330 4 l 1
 330 -26 l 1
 287 -26 l 1
 265 -92 l 1
 224 -80 l 1
 200 15 l 1
 200 69 l 1
533 25 m 0
 547.666666667 -30.3333333333 530 -69.3333333333 480 -92 c 1
 408.666666667 -92 369 -74 361 -38 c 1
 347 -2.66666666667 365.333333333 33 416 69 c 1
 488 69 527 54.3333333333 533 25 c 0
437 -58 m 1
 480 -48 l 1
 470 25 l 1
 416 15 l 1
 408.666666667 -20.3333333333 415.666666667 -44.6666666667 437 -58 c 1
546 72 m 1
 573.333333333 85.3333333333 602 70.3333333333 632 27 c 1
 632 57 639 72 653 72 c 2
 825 72 l 1
 825 16 l 1
 783 16 l 1
 783 -36 l 1
 880 -36 l 1
 830 13.3333333333 823.333333333 49.3333333333 860 72 c 1
 968 72 l 1
 968 27 l 1
 914 7 l 1
 958 -35.6666666667 958 -67 914 -87 c 1
 741 -87 l 1
 729 7 l 1
 687 16 l 1
 676 -87 l 1
 643 -87 l 1
 587 -36 l 1
 587 -87 l 1
 546 -87 l 1
 546 72 l 1
EndSplineSet
Validated: 524325
EndChar

StartChar: registered
Encoding: 198 198 91
Width: 1420
Flags: W
LayerCount: 2
Fore
SplineSet
1382 968 m 1
 1382 -1 l 1
 102 -1 l 1
 41 60 l 1
 41 393 l 1
 264 393 l 1
 264 205 l 1
 1178 205 l 1
 1178 390 l 1
 597 390 l 1
 597 594 l 1
 1178 594 l 1
 1178 764 l 1
 264 764 l 1
 264 563 l 1
 41 563 l 1
 41 918 l 1
 91 968 l 1
 1382 968 l 1
EndSplineSet
Validated: 1
EndChar

StartChar: trademark
Encoding: 216 216 92
Width: 1020
Flags: W
LayerCount: 2
Fore
SplineSet
911 966 m 1
 972 905 l 1
 972 61 l 1
 911 0 l 1
 561 0 l 1
 561 223 l 1
 749 223 l 1
 749 743 l 1
 561 743 l 1
 561 966 l 1
 911 966 l 1
464 966 m 1
 464 743 l 1
 277 743 l 1
 277 223 l 1
 464 223 l 1
 464 0 l 1
 115 0 l 1
 53 61 l 1
 53 905 l 1
 115 966 l 1
 464 966 l 1
EndSplineSet
Validated: 1
EndChar

StartChar: summation
Encoding: 260 339 93
Width: 1648
Flags: W
HStem: 755 217<622 1010>
LayerCount: 2
Fore
SplineSet
99 227 m 1
 163 0 l 1
 1471 0 l 1
 1532 227 l 1
 99 227 l 1
94 260 m 1
 30 445 l 1
 127 492 l 1
 210 552 l 1
 292 625 l 1
 361 700 l 1
 408 786 l 1
 443 873 l 1
 470 972 l 1
 1183 972 l 1
 1203 895 l 1
 1238 797 l 1
 1285 705 l 1
 1354 620 l 1
 1437 548 l 1
 1516 497 l 1
 1614 445 l 1
 1543 260 l 1
 1423 319 l 1
 1303 397 l 1
 1179 504 l 1
 1100 589 l 1
 1046 673 l 1
 1010 755 l 1
 622 755 l 1
 574 658 l 1
 524 591 l 1
 440 497 l 1
 330 405 l 1
 210 324 l 1
 94 260 l 1
EndSplineSet
Validated: 9
EndChar

StartChar: uni0411
Encoding: 262 1041 95
Width: 1566
Flags: W
HStem: -1 215<388 1178> 370 232<480 1113> 748 217<392 1180>
LayerCount: 2
Fore
SplineSet
309 965 m 1
 1259 965 l 1
 1538 650 l 1
 1538 599 l 1
 1292 599 l 1
 1180 748 l 1
 392 748 l 1
 275 599 l 1
 30 599 l 1
 30 650 l 1
 309 965 l 1
480 602 m 1
 1113 602 l 1
 1113 370 l 1
 480 370 l 1
 480 602 l 1
27 343 m 1
 273 343 l 1
 388 214 l 1
 1178 214 l 1
 1291 341 l 1
 1536 341 l 1
 1536 296 l 1
 1257 -1 l 1
 306 -1 l 1
 27 296 l 1
 27 343 l 1
EndSplineSet
Validated: 1
EndChar

StartChar: uni0412
Encoding: 263 1042 96
Width: 1261
Flags: W
HStem: 0 21G<538 725> 0 21G<538 725> 952 20G<36 372.77 890.307 1227> 952 20G<36 372.77 890.307 1227>
VStem: 538 187<0 468>
LayerCount: 2
Fore
SplineSet
353 972 m 1xa8
 611 711 l 1
 653 711 l 1
 910 972 l 1
 1227 972 l 1
 725 468 l 1
 725 0 l 1
 538 0 l 1
 538 468 l 1
 36 969 l 1
 353 972 l 1xa8
EndSplineSet
Validated: 1
EndChar

StartChar: uni0413
Encoding: 264 1043 97
Width: 1495
Flags: W
HStem: 0 225<249 810> 714 261<436 622> 773 202<622 1090>
VStem: 66 183<225 975>
LayerCount: 2
Fore
SplineSet
1444 975 m 1xb0
 1441 958 l 1
 918 0 l 1
 66 0 l 1
 66 975 l 1
 249 975 l 1
 249 225 l 1
 810 225 l 1
 1090 767 l 1
 1090 773 l 1
 622 773 l 1xb0
 622 714 l 1
 436 714 l 1
 436 975 l 1xd0
 1444 975 l 1xb0
EndSplineSet
Validated: 1
EndChar

StartChar: uni0414
Encoding: 265 1044 98
Width: 1240
Flags: W
HStem: 0 21G<102 410.962> 0 21G<102 410.962> 370 222<226 430> 744 221<165 753>
LayerCount: 2
Fore
SplineSet
1201 965 m 1xb0
 1198 948 l 1
 394 0 l 1
 102 0 l 1
 430 370 l 1
 74 370 l 1
 226 592 l 1
 623 592 l 1
 753 743 l 1
 22 744 l 1
 165 965 l 1
 1201 965 l 1xb0
EndSplineSet
Validated: 1
EndChar

StartChar: uni0415
Encoding: 266 1045 99
Width: 1510
Flags: W
HStem: 0 21G<512.899 871.047 1129 1331> 0 21G<512.899 871.047 1129 1331> 749 224<1331 1480> 864 110<278 388>
VStem: 1129 202<0 486.758>
LayerCount: 2
Fore
SplineSet
1480 973 m 1x28
 1480 749 l 1
 1331 749 l 1x28
 1331 0 l 1
 1129 0 l 1
 1129 484 l 1
 1128.86613363 486.757647137 l 1
 860 0 l 1
 524 0 l 1
 30 890 l 1
 30 936 l 1
 57 967 l 1
 90 974 l 1
 541 974 l 1
 768 570 l 1
 534 570 l 1
 388 864 l 1
 278 864 l 1
 670 156 l 1
 720 156 l 1
 1178 974 l 1x98
 1480 973 l 1x28
EndSplineSet
Validated: 524289
EndChar

StartChar: uni042D
Encoding: 267 1069 100
Width: 1510
Flags: W
HStem: 0 21G<476.401 754.506 1129 1331> 0 21G<476.401 754.506 1129 1331> 749 224<1101 1129 1331 1480>
VStem: 1129 202<0 749>
LayerCount: 2
Fore
SplineSet
1480 973 m 1xb0
 1480 749 l 1
 1331 749 l 1
 1331 0 l 1
 1129 0 l 1
 1129 749 l 1
 1101 749 l 1
 745 0 l 1
 486 0 l 1
 19 973 l 1
 270 973 l 1
 618 277 l 1
 955 973 l 1
 1480 973 l 1xb0
EndSplineSet
Validated: 1
EndChar

StartChar: uni042C
Encoding: 268 1068 101
Width: 600
Flags: W
HStem: 996 89<332 392>
VStem: 110 222<598 996>
LayerCount: 2
Fore
SplineSet
392 1085 m 1
 512 996 l 1
 332 996 l 1
 332 385 l 1
 110 598 l 1
 110 1085 l 1
 392 1085 l 1
EndSplineSet
Validated: 1
EndChar

StartChar: uni042A
Encoding: 269 1066 102
Width: 992
Flags: W
HStem: 956 20G<22 324.489 648 872>
VStem: 648 224<624 976>
LayerCount: 2
Fore
SplineSet
872 976 m 1
 872 473 l 1
 519 473 l 1
 22 976 l 1
 305 976 l 1
 648 624 l 1
 648 976 l 1
 872 976 l 1
EndSplineSet
Validated: 1
EndChar

StartChar: uni042B
Encoding: 270 1067 103
Width: 1428
Flags: W
HStem: 0 21G<512.899 871.047> 0 21G<512.899 871.047> 864 110<278 388>
LayerCount: 2
Fore
SplineSet
1398 974 m 1xa0
 860 0 l 1
 524 0 l 1
 30 890 l 1
 30 936 l 1
 57 967 l 1
 90 974 l 1
 541 974 l 1
 768 570 l 1
 534 570 l 1
 388 864 l 1
 278 864 l 1
 670 156 l 1
 720 156 l 1
 1178 974 l 1
 1398 974 l 1xa0
EndSplineSet
Validated: 1
EndChar

StartChar: uni0421
Encoding: 271 1057 104
Width: 1479
Flags: W
HStem: 0 21G<722.569 786.128 1123.98 1429> 0 21G<722.569 786.128 1123.98 1429> 952 20G<171 501.946 1221 1429> 952 20G<171 501.946 1221 1429>
VStem: 1221 208<231 972>
LayerCount: 2
Fore
SplineSet
482 972 m 1xa8
 1221 231 l 1
 1221 972 l 1
 1429 972 l 1
 1429 0 l 1
 1144 0 l 1
 171 972 l 1
 482 972 l 1xa8
90 462 m 1
 846 188 l 1
 779 0 l 1
 20 269 l 1
 90 462 l 1
EndSplineSet
Validated: 1
EndChar

StartChar: uni0422
Encoding: 272 1058 105
Width: 1607
Flags: W
HStem: 0 185<639 700 888 952> 952 20G<700 888> 952 20G<700 888>
VStem: 700 188<188 972>
LayerCount: 2
Fore
SplineSet
888 972 m 1xd0
 888 185 l 1
 952 185 l 1
 1283 521 l 1
 1574 521 l 1
 1050 0 l 1
 541 0 l 1
 12 524 l 1
 305 524 l 1
 639 188 l 1
 700 188 l 1
 700 972 l 1
 888 972 l 1xd0
EndSplineSet
Validated: 1
EndChar

StartChar: uni0424
Encoding: 273 1060 106
Width: 1516
Flags: W
HStem: 0 223<261 647 852 1476> 452 218<260 551.676> 947 20G<646.923 852> 947 20G<646.923 852>
VStem: 40 221<223 452> 647 205<223 474 734 967>
LayerCount: 2
Fore
SplineSet
852 967 m 1xec
 852 734 l 1
 977.333333333 754.666666667 1077.33333333 778.666666667 1152 806 c 0
 1226.66666667 833.333333333 1334.66666667 891.333333333 1476 980 c 1
 1476 780 l 1
 1364 705.333333333 1264.33333333 650.166666667 1177 614.5 c 0
 1089.66666667 578.833333333 981.333333333 547.666666667 852 521 c 1
 852 223 l 1
 1476 223 l 1
 1476 0 l 1
 40 0 l 1
 40 669 l 1
 302 670 l 1
 420.666666667 675.333333333 535.333333333 687.333333333 646 706 c 1
 647 967 l 1
 852 967 l 1xec
261 223 m 1
 647 223 l 1
 647 474 l 1
 557 462 463.333333333 454.666666667 366 452 c 1
 260 452 l 1
 261 223 l 1
EndSplineSet
Validated: 524289
EndChar

StartChar: uni0425
Encoding: 274 1061 107
Width: 1161
Flags: W
HStem: -1 21G<36 309.904 902 1126> -1 21G<36 309.904 902 1126> 373 224<556 902> 948 20G<902 1126> 948 20G<902 1126>
VStem: 902 224<-1 373 597 968>
LayerCount: 2
Fore
SplineSet
1126 968 m 1xb4
 1126 -1 l 1
 902 -1 l 1
 902 373 l 1
 556 373 l 1
 296 -1 l 1
 36 -1 l 1
 450 597 l 1
 902 597 l 1
 902 968 l 1
 1126 968 l 1xb4
EndSplineSet
Validated: 1
EndChar

StartChar: uni0427
Encoding: 275 1063 108
Width: 1557
Flags: W
HStem: -1 226<20 1190> 745 223<20 936>
LayerCount: 2
Fore
SplineSet
1064 968 m 1
 1531 -1 l 1
 20 -1 l 1
 20 225 l 1
 1190 225 l 1
 936 745 l 1
 20 745 l 1
 20 968 l 1
 1064 968 l 1
EndSplineSet
Validated: 1
EndChar

StartChar: uni0428
Encoding: 276 1064 109
Width: 1743
Flags: W
HStem: -1 299<25 249 360 547> -1 226<547 1117> 708 260<25 249 360 547> 773 195<547 1377>
VStem: 25 224<-1 298 708 968> 360 187<225 298 708 773>
LayerCount: 2
Fore
SplineSet
1701 968 m 1x1c
 1249 -1 l 1x5c
 360 -1 l 1
 360 298 l 1
 547 298 l 1x8c
 547 225 l 1
 1117 225 l 1
 1363 747 l 1
 1377 770 l 1
 1377 773 l 1
 547 773 l 1x5c
 547 708 l 1
 360 708 l 1
 360 968 l 1x2c
 1701 968 l 1x1c
249 968 m 1x2c
 249 708 l 1
 25 708 l 1
 25 968 l 1
 249 968 l 1x2c
25 298 m 1x8c
 249 298 l 1
 249 -1 l 1
 25 -1 l 1
 25 298 l 1x8c
EndSplineSet
Validated: 1
EndChar

StartChar: uni0429
Encoding: 277 1065 110
Width: 1743
Flags: W
HStem: -138 89<1414 1474> -1 299<25 249 360 547> -1 226<547 1117> 708 260<25 249 360 547> 773 195<547 1377>
VStem: 25 224<-1 298 708 968> 360 187<225 298 708 773> 1474 222<-49 280>
LayerCount: 2
Fore
SplineSet
1414 -138 m 1x87
 1294 -49 l 1
 1474 -49 l 1
 1478 280 l 1
 1696 772 l 1
 1696 -138 l 1
 1414 -138 l 1x87
1701 968 m 1x8f
 1249 -1 l 1xaf
 360 -1 l 1
 360 298 l 1
 547 298 l 1xc7
 547 225 l 1
 1117 225 l 1
 1363 747 l 1
 1377 770 l 1
 1377 773 l 1
 547 773 l 1xaf
 547 708 l 1
 360 708 l 1
 360 968 l 1x97
 1701 968 l 1x8f
249 968 m 1x97
 249 708 l 1
 25 708 l 1
 25 968 l 1
 249 968 l 1x97
25 298 m 1xc7
 249 298 l 1
 249 -1 l 1
 25 -1 l 1
 25 298 l 1xc7
EndSplineSet
Validated: 1
EndChar

StartChar: uni0417
Encoding: 278 1047 111
Width: 1293
Flags: W
HStem: -1 226<295 1041> 560 221<577 1041> 948 20G<1041 1265> 948 20G<1041 1265>
VStem: 1041 224<225 560 781 968>
LayerCount: 2
Fore
SplineSet
1265 968 m 1xe8
 1265 -1 l 1
 86 -1 l 1
 36 49 l 1
 36 317 l 1
 295 317 l 1
 295 225 l 1
 1041 225 l 1
 1041 560 l 1
 577 560 l 1
 429 409 l 1
 91 409 l 1
 463 781 l 1
 1041 781 l 1
 1041 968 l 1
 1265 968 l 1xe8
EndSplineSet
Validated: 1
EndChar

StartChar: uni0418
Encoding: 279 1048 112
Width: 629
Flags: W
HStem: 0 21G<387 572> 0 21G<387 572> 955 20G<311.356 572>
VStem: 387 185<0 730>
LayerCount: 2
Fore
SplineSet
572 975 m 1xb0
 572 0 l 1
 387 0 l 1
 387 730 l 1
 190 534 l 1
 47 678 l 2
 45 683.333333333 47.6666666667 688.666666667 55 694 c 2
 331 975 l 1
 572 975 l 1xb0
EndSplineSet
Validated: 524289
EndChar

StartChar: uni0419
Encoding: 280 1049 113
Width: 807
Flags: W
HStem: 0 21G<467 652> 0 21G<467 652>
VStem: 467 185<0 460>
LayerCount: 2
Fore
SplineSet
48 694 m 1x20
 137 574 l 1
 137 754 l 1
 748 754 l 1
 535 976 l 1
 48 976 l 1
 48 694 l 1x20
652 705 m 1
 652 0 l 1
 467 0 l 1xa0
 467 460 l 1
 270 264 l 1
 127 408 l 2
 124.405146619 410.594853381 127.071813285 415.928186715 135 424 c 2
 411 705 l 1
 652 705 l 1
EndSplineSet
Validated: 524297
EndChar

StartChar: uni041A
Encoding: 281 1050 114
Width: 1521
Flags: W
HStem: 0 224<63 1243> 748 223<63 1243>
VStem: 1243 221<224 748>
LayerCount: 2
Fore
SplineSet
1437 971 m 1
 1449.66666667 965.666666667 1458.66666667 956.333333333 1464 943 c 1
 1464 33 l 1
 1459.33333333 17 1448.66666667 6 1432 0 c 1
 63 0 l 1
 63 224 l 1
 1243 224 l 1
 1243 748 l 1
 63 748 l 1
 63 971 l 1
 1437 971 l 1
EndSplineSet
Validated: 524289
EndChar

StartChar: uni041B
Encoding: 282 1051 115
Width: 1007
Flags: W
HStem: -1 21G<653.492 944> -1 21G<653.492 944> 956 20G<746 944>
VStem: 746 198<222 976>
LayerCount: 2
Fore
SplineSet
944 976 m 1xb0
 944 -1 l 1
 684 -1 l 1
 54 412 l 1
 171 595 l 1
 746 222 l 1
 746 976 l 1
 944 976 l 1xb0
EndSplineSet
Validated: 1
EndChar

StartChar: uni041C
Encoding: 283 1052 116
Width: 1000
Flags: W
HStem: 0 224<409 826> 711 261<686 894>
LayerCount: 2
Fore
SplineSet
894 972 m 1
 894 711 l 1
 686 709 l 1
 409 224 l 1
 961 224 l 1
 826 0 l 1
 31 0 l 1
 566 972 l 1
 894 972 l 1
EndSplineSet
Validated: 1
EndChar

StartChar: uni041D
Encoding: 284 1053 117
Width: 1582
Flags: W
HStem: 0 21G<211 486.573 1289.11 1552> 0 21G<211 486.573 1289.11 1552> 952 20G<173 376 740.54 1019.19> 952 20G<173 376 740.54 1019.19>
LayerCount: 2
Fore
SplineSet
318 188 m 1xa0
 342 190 l 1
 751 972 l 1
 1008 972 l 1
 1552 0 l 1
 1300 0 l 1
 882 768 l 1
 476 0 l 1
 226 0 l 1
 211 1 l 1
 186 37 l 1
 163 76 l 1
 132 130 l 1
 105 192 l 1
 79 257 l 1
 64 332 l 1
 48 417 l 1
 42 505 l 1
 48 593 l 1
 56 673 l 1
 72 751 l 1
 89 810 l 1
 116 864 l 1
 142 911 l 1
 173 950 l 1
 191 970 l 1
 376 970 l 1
 344 939 l 1
 318 901 l 1
 292 854 l 1
 272 808 l 1
 254 751 l 1
 238 676 l 1
 225 593 l 1
 220 510 l 1
 225 427 l 1
 241 339 l 1
 261 272 l 1
 282 231 l 1
 318 188 l 1xa0
EndSplineSet
Validated: 1
EndChar

StartChar: uni041E
Encoding: 285 1054 118
Width: 1388
Flags: W
HStem: 0 213<263 1134> 748 224<487 908>
LayerCount: 2
Fore
SplineSet
1036 972 m 1
 1367 199 l 1
 1235 0 l 1
 168 0 l 1
 31 202 l 1
 350 972 l 1
 1036 972 l 1
263 213 m 1
 1134 213 l 1
 908 748 l 1
 487 748 l 1
 263 213 l 1
EndSplineSet
Validated: 1
EndChar

StartChar: uni041F
Encoding: 286 1055 119
Width: 1022
Flags: W
HStem: 0 222<287.809 743> 732 234<371 593>
VStem: 35 223.75<278.381 574.227> 743 224<222 967>
LayerCount: 2
Fore
SplineSet
967 967 m 1
 967 0 l 1
 231 0 l 1
 108.333333333 89.3333333333 43 234 35 434 c 1
 51 648.666666667 130.333333333 826 273 966 c 1
 593 966 l 1
 593 732 l 1
 371 732 l 1
 371 784 l 1
 335 784 l 1
 284.333333333 725.333333333 259 608.666666667 259 434 c 1
 258.833333333 425.916666667 258.75 418.0625 258.75 410.4375 c 0
 258.75 296.0625 277.5 233.25 315 222 c 1
 743 222 l 1
 743 968 l 1
 967 967 l 1
EndSplineSet
Validated: 524289
EndChar

StartChar: uni0420
Encoding: 287 1056 120
Width: 1302
Flags: W
HStem: 0 21G<176 475.79> 0 21G<176 475.79> 737 235<232 776>
LayerCount: 2
Fore
SplineSet
1275 972 m 1xa0
 459 0 l 1
 176 0 l 1
 776 720 l 1
 776 737 l 1
 56 737 l 1
 232 972 l 1
 1275 972 l 1xa0
EndSplineSet
Validated: 1
EndChar

StartChar: uni0426
Encoding: 288 1062 121
Width: 1607
Flags: W
HStem: 0 185<639 700 888 952> 952 20G<700 888> 952 20G<700 888>
VStem: 700 188<188 341 621 972>
LayerCount: 2
Fore
SplineSet
888 621 m 1xd0
 890 621 l 1
 1221 962 l 1
 1512 962 l 1
 888 341 l 1
 888 185 l 1
 952 185 l 1
 1283 521 l 1
 1574 521 l 1
 1050 0 l 1
 541 0 l 1
 12 524 l 1
 305 524 l 1
 639 188 l 1
 700 188 l 1
 700 972 l 1
 888 972 l 1
 888 621 l 1xd0
EndSplineSet
Validated: 1
EndChar

StartChar: uni042F
Encoding: 289 1071 122
Width: 1686
Flags: W
HStem: 0 21G<44 267 1193.47 1657> 0 21G<44 267 1193.47 1657> 191 225<267 864> 864 110<278 388>
VStem: 44 234<556 864> 44 223<0 191>
LayerCount: 2
Fore
SplineSet
44 556 m 1x38
 44 890 l 1
 44 936 l 1x34
 71 967 l 1
 104 974 l 1
 541 974 l 1
 768 570 l 1
 534 570 l 1
 388 864 l 1
 278 864 l 1
 278 556 l 1
 44 556 l 1x38
881 781 m 1
 1193 972 l 1
 1647 972 l 1
 881 556 l 1
 881 781 l 1
44 416 m 1
 906 416 l 1
 1657 0 l 1
 1232 0 l 1
 864 191 l 1
 267 191 l 1
 267 0 l 1
 44 0 l 1xb4
 44 416 l 1
EndSplineSet
Validated: 1
EndChar

StartChar: uni0416
Encoding: 290 1046 123
Width: 1293
Flags: W
HStem: 0 225<295 591 815 1239> 377 224<815 1039> 751 224<815 1239>
VStem: 591 224<225 377>
LayerCount: 2
Fore
SplineSet
1239 975 m 1
 1239 751 l 1
 815 751 l 1
 815 601 l 1
 1039 601 l 1
 1039 377 l 1
 815 377 l 1
 815 225 l 1
 1239 225 l 1
 1239 0 l 1
 86 0 l 1
 36 49 l 1
 36 317 l 1
 295 317 l 1
 295 225 l 1
 591 225 l 1
 591 560 l 1
 577 560 l 1
 429 409 l 1
 91 409 l 1
 463 781 l 1
 591 781 l 1
 591 975 l 1
 1239 975 l 1
EndSplineSet
Validated: 1
EndChar

StartChar: uni0401
Encoding: 291 1025 124
Width: 1648
Flags: W
HStem: 755 217<622 1010>
LayerCount: 2
Fore
SplineSet
99 227 m 1
 163 0 l 1
 1471 0 l 1
 1532 227 l 1
 99 227 l 1
94 260 m 1
 30 445 l 1
 127 492 l 1
 210 552 l 1
 292 625 l 1
 361 700 l 1
 408 786 l 1
 443 873 l 1
 470 972 l 1
 1183 972 l 1
 1203 895 l 1
 1238 797 l 1
 1285 705 l 1
 1354 620 l 1
 1437 548 l 1
 1516 497 l 1
 1614 445 l 1
 1543 260 l 1
 1423 319 l 1
 1303 397 l 1
 1179 504 l 1
 1100 589 l 1
 1046 673 l 1
 1010 755 l 1
 622 755 l 1
 574 658 l 1
 524 591 l 1
 440 497 l 1
 330 405 l 1
 210 324 l 1
 94 260 l 1
EndSplineSet
Validated: 9
EndChar

StartChar: uni0423
Encoding: 292 1059 125
Width: 1421
Flags: W
HStem: 0 210<263 1160> 748 224<871 1160>
VStem: 39 224<210 972> 1160 224<210 748>
LayerCount: 2
Fore
SplineSet
1336 972 m 1
 1384 924 l 1
 1384 50 l 1
 1333 0 l 1
 39 0 l 1
 39 972 l 1
 263 972 l 1
 263 210 l 1
 1160 210 l 1
 1160 748 l 1
 871 748 l 1
 734 563 l 1
 445 563 l 1
 751 972 l 1
 1336 972 l 1
EndSplineSet
Validated: 1
EndChar

StartChar: uni042E
Encoding: 293 1070 126
Width: 1421
Flags: W
HStem: 0 210<263 1160> 748 224<871 1160>
VStem: 39 224<210 864> 1160 224<210 748>
LayerCount: 2
Fore
SplineSet
1336 972 m 1
 1384 924 l 1
 1384 50 l 1
 1333 0 l 1
 39 0 l 1
 39 890 l 1
 39 936 l 1
 66 967 l 1
 99 974 l 1
 450 974 l 1
 534 824 l 1
 403 650 l 1
 297 864 l 1
 263 864 l 1
 263 210 l 1
 1160 210 l 1
 1160 748 l 1
 871 748 l 1
 734 563 l 1
 445 563 l 1
 751 972 l 1
 1336 972 l 1
EndSplineSet
Validated: 1
EndChar

StartChar: uni0430
Encoding: 294 1072 127
Width: 1686
Flags: W
HStem: 0 21G<44 267 1193.47 1657> 0 21G<44 267 1193.47 1657> 191 225<267 864> 556 225<270 881> 952 20G<44 270 1160.33 1647> 952 20G<44 270 1160.33 1647>
VStem: 44 223<0 191 781 972>
LayerCount: 2
Fore
SplineSet
44 972 m 1x3a
 270 972 l 1
 270 781 l 1
 881 781 l 1
 1193 972 l 1
 1647 972 l 1
 881 556 l 1
 44 556 l 1
 44 972 l 1x3a
44 416 m 1
 906 416 l 1
 1657 0 l 1
 1232 0 l 1
 864 191 l 1
 267 191 l 1
 267 0 l 1
 44 0 l 1xb2
 44 416 l 1
EndSplineSet
Validated: 1
EndChar

StartChar: uni0431
Encoding: 295 1073 128
Width: 1566
Flags: W
HStem: -1 215<388 1178> 370 232<480 1113> 748 217<392 1180>
LayerCount: 2
Fore
SplineSet
309 965 m 1
 1259 965 l 1
 1538 650 l 1
 1538 599 l 1
 1292 599 l 1
 1180 748 l 1
 392 748 l 1
 275 599 l 1
 30 599 l 1
 30 650 l 1
 309 965 l 1
480 602 m 1
 1113 602 l 1
 1113 370 l 1
 480 370 l 1
 480 602 l 1
27 343 m 1
 273 343 l 1
 388 214 l 1
 1178 214 l 1
 1291 341 l 1
 1536 341 l 1
 1536 296 l 1
 1257 -1 l 1
 306 -1 l 1
 27 296 l 1
 27 343 l 1
EndSplineSet
Validated: 1
EndChar

StartChar: uni0432
Encoding: 296 1074 129
Width: 1261
Flags: W
HStem: 0 21G<538 725> 0 21G<538 725> 952 20G<36 372.77 890.307 1227> 952 20G<36 372.77 890.307 1227>
VStem: 538 187<0 468>
LayerCount: 2
Fore
SplineSet
353 972 m 1xa8
 611 711 l 1
 653 711 l 1
 910 972 l 1
 1227 972 l 1
 725 468 l 1
 725 0 l 1
 538 0 l 1
 538 468 l 1
 36 969 l 1
 353 972 l 1xa8
EndSplineSet
Validated: 1
EndChar

StartChar: uni0433
Encoding: 297 1075 130
Width: 1495
Flags: W
HStem: 0 225<249 810> 714 261<436 622> 773 202<622 1090>
VStem: 66 183<225 975>
LayerCount: 2
Fore
SplineSet
1444 975 m 1xb0
 1441 958 l 1
 918 0 l 1
 66 0 l 1
 66 975 l 1
 249 975 l 1
 249 225 l 1
 810 225 l 1
 1090 767 l 1
 1090 773 l 1
 622 773 l 1xb0
 622 714 l 1
 436 714 l 1
 436 975 l 1xd0
 1444 975 l 1xb0
EndSplineSet
Validated: 1
EndChar

StartChar: uni0434
Encoding: 298 1076 131
Width: 1240
Flags: W
HStem: 0 21G<102 410.962> 0 21G<102 410.962> 370 222<226 430> 744 221<165 753>
LayerCount: 2
Fore
SplineSet
1201 965 m 1xb0
 1198 948 l 1
 394 0 l 1
 102 0 l 1
 430 370 l 1
 74 370 l 1
 226 592 l 1
 623 592 l 1
 753 743 l 1
 22 744 l 1
 165 965 l 1
 1201 965 l 1xb0
EndSplineSet
Validated: 1
EndChar

StartChar: uni0435
Encoding: 299 1077 132
Width: 1510
Flags: W
HStem: 0 21G<512.899 871.047 1129 1331> 0 21G<512.899 871.047 1129 1331> 749 224<1331 1480> 864 110<278 388>
VStem: 1129 202<0 486.758>
LayerCount: 2
Fore
SplineSet
1480 973 m 1x28
 1480 749 l 1
 1331 749 l 1x28
 1331 0 l 1
 1129 0 l 1
 1129 484 l 1
 1128.86613363 486.757647137 l 1
 860 0 l 1
 524 0 l 1
 30 890 l 1
 30 936 l 1
 57 967 l 1
 90 974 l 1
 541 974 l 1
 768 570 l 1
 534 570 l 1
 388 864 l 1
 278 864 l 1
 670 156 l 1
 720 156 l 1
 1178 974 l 1x98
 1480 973 l 1x28
EndSplineSet
Validated: 524289
EndChar

StartChar: uni0436
Encoding: 300 1078 133
Width: 1293
Flags: W
HStem: 0 225<295 591 815 1239> 377 224<815 1039> 751 224<815 1239>
VStem: 591 224<225 377>
LayerCount: 2
Fore
SplineSet
1239 975 m 1
 1239 751 l 1
 815 751 l 1
 815 601 l 1
 1039 601 l 1
 1039 377 l 1
 815 377 l 1
 815 225 l 1
 1239 225 l 1
 1239 0 l 1
 86 0 l 1
 36 49 l 1
 36 317 l 1
 295 317 l 1
 295 225 l 1
 591 225 l 1
 591 560 l 1
 577 560 l 1
 429 409 l 1
 91 409 l 1
 463 781 l 1
 591 781 l 1
 591 975 l 1
 1239 975 l 1
EndSplineSet
Validated: 1
EndChar

StartChar: uni0437
Encoding: 301 1079 134
Width: 1293
Flags: W
HStem: -1 226<295 1041> 560 221<577 1041> 948 20G<1041 1265> 948 20G<1041 1265>
VStem: 1041 224<225 560 781 968>
LayerCount: 2
Fore
SplineSet
1265 968 m 1xe8
 1265 -1 l 1
 86 -1 l 1
 36 49 l 1
 36 317 l 1
 295 317 l 1
 295 225 l 1
 1041 225 l 1
 1041 560 l 1
 577 560 l 1
 429 409 l 1
 91 409 l 1
 463 781 l 1
 1041 781 l 1
 1041 968 l 1
 1265 968 l 1xe8
EndSplineSet
Validated: 1
EndChar

StartChar: uni0438
Encoding: 302 1080 135
Width: 629
Flags: W
HStem: 0 21G<387 572> 0 21G<387 572> 955 20G<311.356 572>
VStem: 387 185<0 730>
LayerCount: 2
Fore
SplineSet
572 975 m 1xb0
 572 0 l 1
 387 0 l 1
 387 730 l 1
 190 534 l 1
 47 678 l 2
 45 683.333333333 47.6666666667 688.666666667 55 694 c 2
 331 975 l 1
 572 975 l 1xb0
EndSplineSet
Validated: 524289
EndChar

StartChar: uni0439
Encoding: 303 1081 136
Width: 807
Flags: W
HStem: 0 21G<467 652> 0 21G<467 652>
VStem: 467 185<0 460>
LayerCount: 2
Fore
SplineSet
48 694 m 1x20
 137 574 l 1
 137 754 l 1
 748 754 l 1
 535 976 l 1
 48 976 l 1
 48 694 l 1x20
652 705 m 1
 652 0 l 1
 467 0 l 1xa0
 467 460 l 1
 270 264 l 1
 127 408 l 2
 124.405146619 410.594853381 127.071813285 415.928186715 135 424 c 2
 411 705 l 1
 652 705 l 1
EndSplineSet
Validated: 524297
EndChar

StartChar: uni043A
Encoding: 304 1082 137
Width: 1521
Flags: W
HStem: 0 224<63 1243> 748 223<63 1243>
VStem: 1243 221<224 748>
LayerCount: 2
Fore
SplineSet
1437 971 m 1
 1449.66666667 965.666666667 1458.66666667 956.333333333 1464 943 c 1
 1464 33 l 1
 1459.33333333 17 1448.66666667 6 1432 0 c 1
 63 0 l 1
 63 224 l 1
 1243 224 l 1
 1243 748 l 1
 63 748 l 1
 63 971 l 1
 1437 971 l 1
EndSplineSet
Validated: 524289
EndChar

StartChar: uni043B
Encoding: 305 1083 138
Width: 1007
Flags: W
HStem: -1 21G<653.492 944> -1 21G<653.492 944> 956 20G<746 944>
VStem: 746 198<222 976>
LayerCount: 2
Fore
SplineSet
944 976 m 1xb0
 944 -1 l 1
 684 -1 l 1
 54 412 l 1
 171 595 l 1
 746 222 l 1
 746 976 l 1
 944 976 l 1xb0
EndSplineSet
Validated: 1
EndChar

StartChar: uni043C
Encoding: 306 1084 139
Width: 1000
Flags: W
HStem: 0 224<409 826> 711 261<686 894>
LayerCount: 2
Fore
SplineSet
894 972 m 1
 894 711 l 1
 686 709 l 1
 409 224 l 1
 961 224 l 1
 826 0 l 1
 31 0 l 1
 566 972 l 1
 894 972 l 1
EndSplineSet
Validated: 1
EndChar

StartChar: uni043D
Encoding: 307 1085 140
Width: 1582
Flags: W
HStem: 0 21G<211 486.573 1289.11 1552> 0 21G<211 486.573 1289.11 1552> 952 20G<173 376 740.54 1019.19> 952 20G<173 376 740.54 1019.19>
LayerCount: 2
Fore
SplineSet
318 188 m 1xa0
 342 190 l 1
 751 972 l 1
 1008 972 l 1
 1552 0 l 1
 1300 0 l 1
 882 768 l 1
 476 0 l 1
 226 0 l 1
 211 1 l 1
 186 37 l 1
 163 76 l 1
 132 130 l 1
 105 192 l 1
 79 257 l 1
 64 332 l 1
 48 417 l 1
 42 505 l 1
 48 593 l 1
 56 673 l 1
 72 751 l 1
 89 810 l 1
 116 864 l 1
 142 911 l 1
 173 950 l 1
 191 970 l 1
 376 970 l 1
 344 939 l 1
 318 901 l 1
 292 854 l 1
 272 808 l 1
 254 751 l 1
 238 676 l 1
 225 593 l 1
 220 510 l 1
 225 427 l 1
 241 339 l 1
 261 272 l 1
 282 231 l 1
 318 188 l 1xa0
EndSplineSet
Validated: 1
EndChar

StartChar: uni043E
Encoding: 308 1086 141
Width: 1388
Flags: W
HStem: 0 213<263 1134> 748 224<487 908>
LayerCount: 2
Fore
SplineSet
1036 972 m 1
 1367 199 l 1
 1235 0 l 1
 168 0 l 1
 31 202 l 1
 350 972 l 1
 1036 972 l 1
263 213 m 1
 1134 213 l 1
 908 748 l 1
 487 748 l 1
 263 213 l 1
EndSplineSet
Validated: 1
EndChar

StartChar: uni043F
Encoding: 309 1087 142
Width: 1022
Flags: W
HStem: 0 222<287.809 743> 732 234<371 593>
VStem: 35 223.75<278.381 574.227> 743 224<222 967>
LayerCount: 2
Fore
SplineSet
967 967 m 1
 967 0 l 1
 231 0 l 1
 108.333333333 89.3333333333 43 234 35 434 c 1
 51 648.666666667 130.333333333 826 273 966 c 1
 593 966 l 1
 593 732 l 1
 371 732 l 1
 371 784 l 1
 335 784 l 1
 284.333333333 725.333333333 259 608.666666667 259 434 c 1
 258.833333333 425.916666667 258.75 418.0625 258.75 410.4375 c 0
 258.75 296.0625 277.5 233.25 315 222 c 1
 743 222 l 1
 743 968 l 1
 967 967 l 1
EndSplineSet
Validated: 524289
EndChar

StartChar: uni0440
Encoding: 310 1088 143
Width: 1302
Flags: W
HStem: 0 21G<176 475.79> 0 21G<176 475.79> 737 235<232 776>
LayerCount: 2
Fore
SplineSet
1275 972 m 1xa0
 459 0 l 1
 176 0 l 1
 776 720 l 1
 776 737 l 1
 56 737 l 1
 232 972 l 1
 1275 972 l 1xa0
EndSplineSet
Validated: 1
EndChar

StartChar: uni0441
Encoding: 311 1089 144
Width: 1479
Flags: W
HStem: 0 21G<722.569 786.128 1123.98 1429> 0 21G<722.569 786.128 1123.98 1429> 952 20G<171 501.946 1221 1429> 952 20G<171 501.946 1221 1429>
VStem: 1221 208<231 972>
LayerCount: 2
Fore
SplineSet
482 972 m 1xa8
 1221 231 l 1
 1221 972 l 1
 1429 972 l 1
 1429 0 l 1
 1144 0 l 1
 171 972 l 1
 482 972 l 1xa8
90 462 m 1
 846 188 l 1
 779 0 l 1
 20 269 l 1
 90 462 l 1
EndSplineSet
Validated: 1
EndChar

StartChar: uni0442
Encoding: 312 1090 145
Width: 1607
Flags: W
HStem: 0 185<639 700 888 952> 952 20G<700 888> 952 20G<700 888>
VStem: 700 188<188 972>
LayerCount: 2
Fore
SplineSet
888 972 m 1xd0
 888 185 l 1
 952 185 l 1
 1283 521 l 1
 1574 521 l 1
 1050 0 l 1
 541 0 l 1
 12 524 l 1
 305 524 l 1
 639 188 l 1
 700 188 l 1
 700 972 l 1
 888 972 l 1xd0
EndSplineSet
Validated: 1
EndChar

StartChar: uni0443
Encoding: 313 1091 146
Width: 1421
Flags: W
HStem: 0 210<263 1160> 748 224<871 1160>
VStem: 39 224<210 972> 1160 224<210 748>
LayerCount: 2
Fore
SplineSet
1336 972 m 1
 1384 924 l 1
 1384 50 l 1
 1333 0 l 1
 39 0 l 1
 39 972 l 1
 263 972 l 1
 263 210 l 1
 1160 210 l 1
 1160 748 l 1
 871 748 l 1
 734 563 l 1
 445 563 l 1
 751 972 l 1
 1336 972 l 1
EndSplineSet
Validated: 1
EndChar

StartChar: uni0444
Encoding: 314 1092 147
Width: 1516
Flags: W
HStem: 0 223<261 647 852 1476> 452 218<260 551.676> 947 20G<646.923 852> 947 20G<646.923 852>
VStem: 40 221<223 452> 647 205<223 474 734 967>
LayerCount: 2
Fore
SplineSet
852 967 m 1xec
 852 734 l 1
 977.333333333 754.666666667 1077.33333333 778.666666667 1152 806 c 0
 1226.66666667 833.333333333 1334.66666667 891.333333333 1476 980 c 1
 1476 780 l 1
 1364 705.333333333 1264.33333333 650.166666667 1177 614.5 c 0
 1089.66666667 578.833333333 981.333333333 547.666666667 852 521 c 1
 852 223 l 1
 1476 223 l 1
 1476 0 l 1
 40 0 l 1
 40 669 l 1
 302 670 l 1
 420.666666667 675.333333333 535.333333333 687.333333333 646 706 c 1
 647 967 l 1
 852 967 l 1xec
261 223 m 1
 647 223 l 1
 647 474 l 1
 557 462 463.333333333 454.666666667 366 452 c 1
 260 452 l 1
 261 223 l 1
EndSplineSet
Validated: 524289
EndChar

StartChar: uni0445
Encoding: 315 1093 148
Width: 1161
Flags: W
HStem: -1 21G<36 309.904 902 1126> -1 21G<36 309.904 902 1126> 373 224<556 902> 948 20G<902 1126> 948 20G<902 1126>
VStem: 902 224<-1 373 597 968>
LayerCount: 2
Fore
SplineSet
1126 968 m 1xb4
 1126 -1 l 1
 902 -1 l 1
 902 373 l 1
 556 373 l 1
 296 -1 l 1
 36 -1 l 1
 450 597 l 1
 902 597 l 1
 902 968 l 1
 1126 968 l 1xb4
EndSplineSet
Validated: 1
EndChar

StartChar: uni0446
Encoding: 316 1094 149
Width: 1607
Flags: W
HStem: 0 185<639 700 888 952> 952 20G<700 888> 952 20G<700 888>
VStem: 700 188<188 341 621 972>
LayerCount: 2
Fore
SplineSet
888 621 m 1xd0
 890 621 l 1
 1221 962 l 1
 1512 962 l 1
 888 341 l 1
 888 185 l 1
 952 185 l 1
 1283 521 l 1
 1574 521 l 1
 1050 0 l 1
 541 0 l 1
 12 524 l 1
 305 524 l 1
 639 188 l 1
 700 188 l 1
 700 972 l 1
 888 972 l 1
 888 621 l 1xd0
EndSplineSet
Validated: 1
EndChar

StartChar: uni0447
Encoding: 317 1095 150
Width: 1557
Flags: W
HStem: -1 226<20 1190> 745 223<20 936>
LayerCount: 2
Fore
SplineSet
1064 968 m 1
 1531 -1 l 1
 20 -1 l 1
 20 225 l 1
 1190 225 l 1
 936 745 l 1
 20 745 l 1
 20 968 l 1
 1064 968 l 1
EndSplineSet
Validated: 1
EndChar

StartChar: uni0448
Encoding: 318 1096 151
Width: 1743
Flags: W
HStem: -1 299<25 249 360 547> -1 226<547 1117> 708 260<25 249 360 547> 773 195<547 1377>
VStem: 25 224<-1 298 708 968> 360 187<225 298 708 773>
LayerCount: 2
Fore
SplineSet
1701 968 m 1x1c
 1249 -1 l 1x5c
 360 -1 l 1
 360 298 l 1
 547 298 l 1x8c
 547 225 l 1
 1117 225 l 1
 1363 747 l 1
 1377 770 l 1
 1377 773 l 1
 547 773 l 1x5c
 547 708 l 1
 360 708 l 1
 360 968 l 1x2c
 1701 968 l 1x1c
249 968 m 1x2c
 249 708 l 1
 25 708 l 1
 25 968 l 1
 249 968 l 1x2c
25 298 m 1x8c
 249 298 l 1
 249 -1 l 1
 25 -1 l 1
 25 298 l 1x8c
EndSplineSet
Validated: 1
EndChar

StartChar: uni0449
Encoding: 319 1097 152
Width: 1743
Flags: W
HStem: -138 89<1414 1474> -1 299<25 249 360 547> -1 226<547 1117> 708 260<25 249 360 547> 773 195<547 1377>
VStem: 25 224<-1 298 708 968> 360 187<225 298 708 773> 1474 222<-49 280>
LayerCount: 2
Fore
SplineSet
1414 -138 m 1x87
 1294 -49 l 1
 1474 -49 l 1
 1478 280 l 1
 1696 772 l 1
 1696 -138 l 1
 1414 -138 l 1x87
1701 968 m 1x8f
 1249 -1 l 1xaf
 360 -1 l 1
 360 298 l 1
 547 298 l 1xc7
 547 225 l 1
 1117 225 l 1
 1363 747 l 1
 1377 770 l 1
 1377 773 l 1
 547 773 l 1xaf
 547 708 l 1
 360 708 l 1
 360 968 l 1x97
 1701 968 l 1x8f
249 968 m 1x97
 249 708 l 1
 25 708 l 1
 25 968 l 1
 249 968 l 1x97
25 298 m 1xc7
 249 298 l 1
 249 -1 l 1
 25 -1 l 1
 25 298 l 1xc7
EndSplineSet
Validated: 1
EndChar

StartChar: uni044A
Encoding: 320 1098 153
Width: 992
Flags: W
HStem: 956 20G<22 324.489 648 872>
VStem: 648 224<624 976>
LayerCount: 2
Fore
SplineSet
872 976 m 1
 872 473 l 1
 519 473 l 1
 22 976 l 1
 305 976 l 1
 648 624 l 1
 648 976 l 1
 872 976 l 1
EndSplineSet
Validated: 1
EndChar

StartChar: uni044B
Encoding: 321 1099 154
Width: 1428
Flags: W
HStem: 0 21G<512.899 871.047> 0 21G<512.899 871.047> 864 110<278 388>
LayerCount: 2
Fore
SplineSet
1398 974 m 1xa0
 860 0 l 1
 524 0 l 1
 30 890 l 1
 30 936 l 1
 57 967 l 1
 90 974 l 1
 541 974 l 1
 768 570 l 1
 534 570 l 1
 388 864 l 1
 278 864 l 1
 670 156 l 1
 720 156 l 1
 1178 974 l 1
 1398 974 l 1xa0
EndSplineSet
Validated: 1
EndChar

StartChar: uni044C
Encoding: 322 1100 155
Width: 600
Flags: W
HStem: 996 89<332 392>
VStem: 110 222<598 996>
LayerCount: 2
Fore
SplineSet
392 1085 m 1
 512 996 l 1
 332 996 l 1
 332 385 l 1
 110 598 l 1
 110 1085 l 1
 392 1085 l 1
EndSplineSet
Validated: 1
EndChar

StartChar: uni044D
Encoding: 323 1101 156
Width: 1510
Flags: W
HStem: 0 21G<476.401 754.506 1129 1331> 0 21G<476.401 754.506 1129 1331> 749 224<1101 1129 1331 1480>
VStem: 1129 202<0 749>
LayerCount: 2
Fore
SplineSet
1480 973 m 1xb0
 1480 749 l 1
 1331 749 l 1
 1331 0 l 1
 1129 0 l 1
 1129 749 l 1
 1101 749 l 1
 745 0 l 1
 486 0 l 1
 19 973 l 1
 270 973 l 1
 618 277 l 1
 955 973 l 1
 1480 973 l 1xb0
EndSplineSet
Validated: 1
EndChar

StartChar: uni044E
Encoding: 324 1102 157
Width: 1421
Flags: W
HStem: 0 210<263 1160> 748 224<871 1160>
VStem: 39 224<210 864> 1160 224<210 748>
LayerCount: 2
Fore
SplineSet
1336 972 m 1
 1384 924 l 1
 1384 50 l 1
 1333 0 l 1
 39 0 l 1
 39 890 l 1
 39 936 l 1
 66 967 l 1
 99 974 l 1
 450 974 l 1
 534 824 l 1
 403 650 l 1
 297 864 l 1
 263 864 l 1
 263 210 l 1
 1160 210 l 1
 1160 748 l 1
 871 748 l 1
 734 563 l 1
 445 563 l 1
 751 972 l 1
 1336 972 l 1
EndSplineSet
Validated: 1
EndChar

StartChar: uni044F
Encoding: 325 1103 158
Width: 1686
Flags: W
HStem: 0 21G<44 267 1193.47 1657> 0 21G<44 267 1193.47 1657> 191 225<267 864> 864 110<278 388>
VStem: 44 234<556 864> 44 223<0 191>
LayerCount: 2
Fore
SplineSet
44 556 m 1x38
 44 890 l 1
 44 936 l 1x34
 71 967 l 1
 104 974 l 1
 541 974 l 1
 768 570 l 1
 534 570 l 1
 388 864 l 1
 278 864 l 1
 278 556 l 1
 44 556 l 1x38
881 781 m 1
 1193 972 l 1
 1647 972 l 1
 881 556 l 1
 881 781 l 1
44 416 m 1
 906 416 l 1
 1657 0 l 1
 1232 0 l 1
 864 191 l 1
 267 191 l 1
 267 0 l 1
 44 0 l 1xb4
 44 416 l 1
EndSplineSet
Validated: 1
EndChar

StartChar: uni0451
Encoding: 326 1105 159
Width: 1648
Flags: W
HStem: 755 217<622 1010>
LayerCount: 2
Fore
SplineSet
99 227 m 1
 163 0 l 1
 1471 0 l 1
 1532 227 l 1
 99 227 l 1
94 260 m 1
 30 445 l 1
 127 492 l 1
 210 552 l 1
 292 625 l 1
 361 700 l 1
 408 786 l 1
 443 873 l 1
 470 972 l 1
 1183 972 l 1
 1203 895 l 1
 1238 797 l 1
 1285 705 l 1
 1354 620 l 1
 1437 548 l 1
 1516 497 l 1
 1614 445 l 1
 1543 260 l 1
 1423 319 l 1
 1303 397 l 1
 1179 504 l 1
 1100 589 l 1
 1046 673 l 1
 1010 755 l 1
 622 755 l 1
 574 658 l 1
 524 591 l 1
 440 497 l 1
 330 405 l 1
 210 324 l 1
 94 260 l 1
EndSplineSet
Validated: 9
EndChar
